PixelPanel-ThinRound.ufo
<glyph name="quotedbl" format="2">
  <advance width="600"/>
  <unicode hex="0022"/>
  <outline>
    <contour>
      <point x="349.75" y="455" type="line"/>
      <point x="350.25" y="455" type="line"/>
      <point x="352.762" y="455"/>
      <point x="355" y="452.762"/>
      <point x="355" y="450.25" type="curve"/>
      <point x="355" y="449.75" type="line"/>
      <point x="355" y="447.238"/>
      <point x="352.762" y="445"/>
      <point x="350.25" y="445" type="curve"/>
      <point x="349.75" y="445" type="line"/>
      <point x="347.238" y="445"/>
      <point x="345" y="447.238"/>
      <point x="345" y="449.75" type="curve"/>
      <point x="345" y="450.25" type="line"/>
      <point x="345" y="452.762"/>
      <point x="347.238" y="455"/>
      <point x="349.75" y="455" type="curve"/>
    </contour>
    <contour>
      <point x="149.75" y="455" type="line"/>
      <point x="150.25" y="455" type="line"/>
      <point x="152.762" y="455"/>
      <point x="155" y="452.762"/>
      <point x="155" y="450.25" type="curve"/>
      <point x="155" y="449.75" type="line"/>
      <point x="155" y="447.238"/>
      <point x="152.762" y="445"/>
      <point x="150.25" y="445" type="curve"/>
      <point x="149.75" y="445" type="line"/>
      <point x="147.238" y="445"/>
      <point x="145" y="447.238"/>
      <point x="145" y="449.75" type="curve"/>
      <point x="145" y="450.25" type="line"/>
      <point x="145" y="452.762"/>
      <point x="147.238" y="455"/>
      <point x="149.75" y="455" type="curve"/>
    </contour>
    <contour>
      <point x="349.75" y="555" type="line"/>
      <point x="350.25" y="555" type="line"/>
      <point x="352.762" y="555"/>
      <point x="355" y="552.762"/>
      <point x="355" y="550.25" type="curve"/>
      <point x="355" y="549.75" type="line"/>
      <point x="355" y="547.238"/>
      <point x="352.762" y="545"/>
      <point x="350.25" y="545" type="curve"/>
      <point x="349.75" y="545" type="line"/>
      <point x="347.238" y="545"/>
      <point x="345" y="547.238"/>
      <point x="345" y="549.75" type="curve"/>
      <point x="345" y="550.25" type="line"/>
      <point x="345" y="552.762"/>
      <point x="347.238" y="555"/>
      <point x="349.75" y="555" type="curve"/>
    </contour>
    <contour>
      <point x="149.75" y="555" type="line"/>
      <point x="150.25" y="555" type="line"/>
      <point x="152.762" y="555"/>
      <point x="155" y="552.762"/>
      <point x="155" y="550.25" type="curve"/>
      <point x="155" y="549.75" type="line"/>
      <point x="155" y="547.238"/>
      <point x="152.762" y="545"/>
      <point x="150.25" y="545" type="curve"/>
      <point x="149.75" y="545" type="line"/>
      <point x="147.238" y="545"/>
      <point x="145" y="547.238"/>
      <point x="145" y="549.75" type="curve"/>
      <point x="145" y="550.25" type="line"/>
      <point x="145" y="552.762"/>
      <point x="147.238" y="555"/>
      <point x="149.75" y="555" type="curve"/>
    </contour>
    <contour>
      <point x="349.75" y="655" type="line"/>
      <point x="350.25" y="655" type="line"/>
      <point x="352.762" y="655"/>
      <point x="355" y="652.762"/>
      <point x="355" y="650.25" type="curve"/>
      <point x="355" y="649.75" type="line"/>
      <point x="355" y="647.238"/>
      <point x="352.762" y="645"/>
      <point x="350.25" y="645" type="curve"/>
      <point x="349.75" y="645" type="line"/>
      <point x="347.238" y="645"/>
      <point x="345" y="647.238"/>
      <point x="345" y="649.75" type="curve"/>
      <point x="345" y="650.25" type="line"/>
      <point x="345" y="652.762"/>
      <point x="347.238" y="655"/>
      <point x="349.75" y="655" type="curve"/>
    </contour>
    <contour>
      <point x="149.75" y="655" type="line"/>
      <point x="150.25" y="655" type="line"/>
      <point x="152.762" y="655"/>
      <point x="155" y="652.762"/>
      <point x="155" y="650.25" type="curve"/>
      <point x="155" y="649.75" type="line"/>
      <point x="155" y="647.238"/>
      <point x="152.762" y="645"/>
      <point x="150.25" y="645" type="curve"/>
      <point x="149.75" y="645" type="line"/>
      <point x="147.238" y="645"/>
      <point x="145" y="647.238"/>
      <point x="145" y="649.75" type="curve"/>
      <point x="145" y="650.25" type="line"/>
      <point x="145" y="652.762"/>
      <point x="147.238" y="655"/>
      <point x="149.75" y="655" type="curve"/>
    </contour>
  </outline>
</glyph>
<glyph name="asciicircum" format="2">
  <advance width="600"/>
  <unicode hex="005E"/>
  <outline>
    <contour>
      <point x="450" y="455" type="line"/>
      <point x="450" y="455" type="line"/>
      <point x="453" y="455"/>
      <point x="455" y="453"/>
      <point x="455" y="450" type="curve"/>
      <point x="455" y="450" type="line"/>
      <point x="455" y="447"/>
      <point x="453" y="445"/>
      <point x="450" y="445" type="curve"/>
      <point x="450" y="445" type="line"/>
      <point x="447" y="445"/>
      <point x="445" y="447"/>
      <point x="445" y="450" type="curve"/>
      <point x="445" y="450" type="line"/>
      <point x="445" y="453"/>
      <point x="447" y="455"/>
      <point x="450" y="455" type="curve"/>
    </contour>
    <contour>
      <point x="50" y="455" type="line"/>
      <point x="50" y="455" type="line"/>
      <point x="53" y="455"/>
      <point x="55" y="453"/>
      <point x="55" y="450" type="curve"/>
      <point x="55" y="450" type="line"/>
      <point x="55" y="447"/>
      <point x="53" y="445"/>
      <point x="50" y="445" type="curve"/>
      <point x="50" y="445" type="line"/>
      <point x="47" y="445"/>
      <point x="45" y="447"/>
      <point x="45" y="450" type="curve"/>
      <point x="45" y="450" type="line"/>
      <point x="45" y="453"/>
      <point x="47" y="455"/>
      <point x="50" y="455" type="curve"/>
    </contour>
    <contour>
      <point x="350" y="555" type="line"/>
      <point x="350" y="555" type="line"/>
      <point x="353" y="555"/>
      <point x="355" y="553"/>
      <point x="355" y="550" type="curve"/>
      <point x="355" y="550" type="line"/>
      <point x="355" y="547"/>
      <point x="353" y="545"/>
      <point x="350" y="545" type="curve"/>
      <point x="350" y="545" type="line"/>
      <point x="347" y="545"/>
      <point x="345" y="547"/>
      <point x="345" y="550" type="curve"/>
      <point x="345" y="550" type="line"/>
      <point x="345" y="553"/>
      <point x="347" y="555"/>
      <point x="350" y="555" type="curve"/>
    </contour>
    <contour>
      <point x="150" y="555" type="line"/>
      <point x="150" y="555" type="line"/>
      <point x="153" y="555"/>
      <point x="155" y="553"/>
      <point x="155" y="550" type="curve"/>
      <point x="155" y="550" type="line"/>
      <point x="155" y="547"/>
      <point x="153" y="545"/>
      <point x="150" y="545" type="curve"/>
      <point x="150" y="545" type="line"/>
      <point x="147" y="545"/>
      <point x="145" y="547"/>
      <point x="145" y="550" type="curve"/>
      <point x="145" y="550" type="line"/>
      <point x="145" y="553"/>
      <point x="147" y="555"/>
      <point x="150" y="555" type="curve"/>
    </contour>
    <contour>
      <point x="250" y="655" type="line"/>
      <point x="250" y="655" type="line"/>
      <point x="253" y="655"/>
      <point x="255" y="653"/>
      <point x="255" y="650" type="curve"/>
      <point x="255" y="650" type="line"/>
      <point x="255" y="647"/>
      <point x="253" y="645"/>
      <point x="250" y="645" type="curve"/>
      <point x="250" y="645" type="line"/>
      <point x="247" y="645"/>
      <point x="245" y="647"/>
      <point x="245" y="650" type="curve"/>
      <point x="245" y="650" type="line"/>
      <point x="245" y="653"/>
      <point x="247" y="655"/>
      <point x="250" y="655" type="curve"/>
    </contour>
  </outline>
</glyph>
<glyph name="e" format="2">
  <advance width="600"/>
  <unicode hex="0065"/>
  <outline>
    <contour>
      <point x="349.75" y="55" type="line"/>
      <point x="350.25" y="55" type="line"/>
      <point x="352.762" y="55"/>
      <point x="355" y="52.7617"/>
      <point x="355" y="50.25" type="curve"/>
      <point x="355" y="49.75" type="line"/>
      <point x="355" y="47.2383"/>
      <point x="352.762" y="45"/>
      <point x="350.25" y="45" type="curve"/>
      <point x="349.75" y="45" type="line"/>
      <point x="347.238" y="45"/>
      <point x="345" y="47.2383"/>
      <point x="345" y="49.75" type="curve"/>
      <point x="345" y="50.25" type="line"/>
      <point x="345" y="52.7617"/>
      <point x="347.238" y="55"/>
      <point x="349.75" y="55" type="curve"/>
    </contour>
    <contour>
      <point x="249.75" y="55" type="line"/>
      <point x="250.25" y="55" type="line"/>
      <point x="252.762" y="55"/>
      <point x="255" y="52.7617"/>
      <point x="255" y="50.25" type="curve"/>
      <point x="255" y="49.75" type="line"/>
      <point x="255" y="47.2383"/>
      <point x="252.762" y="45"/>
      <point x="250.25" y="45" type="curve"/>
      <point x="249.75" y="45" type="line"/>
      <point x="247.238" y="45"/>
      <point x="245" y="47.2383"/>
      <point x="245" y="49.75" type="curve"/>
      <point x="245" y="50.25" type="line"/>
      <point x="245" y="52.7617"/>
      <point x="247.238" y="55"/>
      <point x="249.75" y="55" type="curve"/>
    </contour>
    <contour>
      <point x="149.75" y="55" type="line"/>
      <point x="150.25" y="55" type="line"/>
      <point x="152.762" y="55"/>
      <point x="155" y="52.7617"/>
      <point x="155" y="50.25" type="curve"/>
      <point x="155" y="49.75" type="line"/>
      <point x="155" y="47.2383"/>
      <point x="152.762" y="45"/>
      <point x="150.25" y="45" type="curve"/>
      <point x="149.75" y="45" type="line"/>
      <point x="147.238" y="45"/>
      <point x="145" y="47.2383"/>
      <point x="145" y="49.75" type="curve"/>
      <point x="145" y="50.25" type="line"/>
      <point x="145" y="52.7617"/>
      <point x="147.238" y="55"/>
      <point x="149.75" y="55" type="curve"/>
    </contour>
    <contour>
      <point x="49.75" y="155" type="line"/>
      <point x="50.25" y="155" type="line"/>
      <point x="52.7617" y="155"/>
      <point x="55" y="152.762"/>
      <point x="55" y="150.25" type="curve"/>
      <point x="55" y="149.75" type="line"/>
      <point x="55" y="147.238"/>
      <point x="52.7617" y="145"/>
      <point x="50.25" y="145" type="curve"/>
      <point x="49.75" y="145" type="line"/>
      <point x="47.2383" y="145"/>
      <point x="45" y="147.238"/>
      <point x="45" y="149.75" type="curve"/>
      <point x="45" y="150.25" type="line"/>
      <point x="45" y="152.762"/>
      <point x="47.2383" y="155"/>
      <point x="49.75" y="155" type="curve"/>
    </contour>
    <contour>
      <point x="449.75" y="255" type="line"/>
      <point x="450.25" y="255" type="line"/>
      <point x="452.762" y="255"/>
      <point x="455" y="252.762"/>
      <point x="455" y="250.25" type="curve"/>
      <point x="455" y="249.75" type="line"/>
      <point x="455" y="247.238"/>
      <point x="452.762" y="245"/>
      <point x="450.25" y="245" type="curve"/>
      <point x="449.75" y="245" type="line"/>
      <point x="447.238" y="245"/>
      <point x="445" y="247.238"/>
      <point x="445" y="249.75" type="curve"/>
      <point x="445" y="250.25" type="line"/>
      <point x="445" y="252.762"/>
      <point x="447.238" y="255"/>
      <point x="449.75" y="255" type="curve"/>
    </contour>
    <contour>
      <point x="349.75" y="255" type="line"/>
      <point x="350.25" y="255" type="line"/>
      <point x="352.762" y="255"/>
      <point x="355" y="252.762"/>
      <point x="355" y="250.25" type="curve"/>
      <point x="355" y="249.75" type="line"/>
      <point x="355" y="247.238"/>
      <point x="352.762" y="245"/>
      <point x="350.25" y="245" type="curve"/>
      <point x="349.75" y="245" type="line"/>
      <point x="347.238" y="245"/>
      <point x="345" y="247.238"/>
      <point x="345" y="249.75" type="curve"/>
      <point x="345" y="250.25" type="line"/>
      <point x="345" y="252.762"/>
      <point x="347.238" y="255"/>
      <point x="349.75" y="255" type="curve"/>
    </contour>
    <contour>
      <point x="249.75" y="255" type="line"/>
      <point x="250.25" y="255" type="line"/>
      <point x="252.762" y="255"/>
      <point x="255" y="252.762"/>
      <point x="255" y="250.25" type="curve"/>
      <point x="255" y="249.75" type="line"/>
      <point x="255" y="247.238"/>
      <point x="252.762" y="245"/>
      <point x="250.25" y="245" type="curve"/>
      <point x="249.75" y="245" type="line"/>
      <point x="247.238" y="245"/>
      <point x="245" y="247.238"/>
      <point x="245" y="249.75" type="curve"/>
      <point x="245" y="250.25" type="line"/>
      <point x="245" y="252.762"/>
      <point x="247.238" y="255"/>
      <point x="249.75" y="255" type="curve"/>
    </contour>
    <contour>
      <point x="149.75" y="255" type="line"/>
      <point x="150.25" y="255" type="line"/>
      <point x="152.762" y="255"/>
      <point x="155" y="252.762"/>
      <point x="155" y="250.25" type="curve"/>
      <point x="155" y="249.75" type="line"/>
      <point x="155" y="247.238"/>
      <point x="152.762" y="245"/>
      <point x="150.25" y="245" type="curve"/>
      <point x="149.75" y="245" type="line"/>
      <point x="147.238" y="245"/>
      <point x="145" y="247.238"/>
      <point x="145" y="249.75" type="curve"/>
      <point x="145" y="250.25" type="line"/>
      <point x="145" y="252.762"/>
      <point x="147.238" y="255"/>
      <point x="149.75" y="255" type="curve"/>
    </contour>
    <contour>
      <point x="49.75" y="255" type="line"/>
      <point x="50.25" y="255" type="line"/>
      <point x="52.7617" y="255"/>
      <point x="55" y="252.762"/>
      <point x="55" y="250.25" type="curve"/>
      <point x="55" y="249.75" type="line"/>
      <point x="55" y="247.238"/>
      <point x="52.7617" y="245"/>
      <point x="50.25" y="245" type="curve"/>
      <point x="49.75" y="245" type="line"/>
      <point x="47.2383" y="245"/>
      <point x="45" y="247.238"/>
      <point x="45" y="249.75" type="curve"/>
      <point x="45" y="250.25" type="line"/>
      <point x="45" y="252.762"/>
      <point x="47.2383" y="255"/>
      <point x="49.75" y="255" type="curve"/>
    </contour>
    <contour>
      <point x="449.75" y="355" type="line"/>
      <point x="450.25" y="355" type="line"/>
      <point x="452.762" y="355"/>
      <point x="455" y="352.762"/>
      <point x="455" y="350.25" type="curve"/>
      <point x="455" y="349.75" type="line"/>
      <point x="455" y="347.238"/>
      <point x="452.762" y="345"/>
      <point x="450.25" y="345" type="curve"/>
      <point x="449.75" y="345" type="line"/>
      <point x="447.238" y="345"/>
      <point x="445" y="347.238"/>
      <point x="445" y="349.75" type="curve"/>
      <point x="445" y="350.25" type="line"/>
      <point x="445" y="352.762"/>
      <point x="447.238" y="355"/>
      <point x="449.75" y="355" type="curve"/>
    </contour>
    <contour>
      <point x="49.75" y="355" type="line"/>
      <point x="50.25" y="355" type="line"/>
      <point x="52.7617" y="355"/>
      <point x="55" y="352.762"/>
      <point x="55" y="350.25" type="curve"/>
      <point x="55" y="349.75" type="line"/>
      <point x="55" y="347.238"/>
      <point x="52.7617" y="345"/>
      <point x="50.25" y="345" type="curve"/>
      <point x="49.75" y="345" type="line"/>
      <point x="47.2383" y="345"/>
      <point x="45" y="347.238"/>
      <point x="45" y="349.75" type="curve"/>
      <point x="45" y="350.25" type="line"/>
      <point x="45" y="352.762"/>
      <point x="47.2383" y="355"/>
      <point x="49.75" y="355" type="curve"/>
    </contour>
    <contour>
      <point x="349.75" y="455" type="line"/>
      <point x="350.25" y="455" type="line"/>
      <point x="352.762" y="455"/>
      <point x="355" y="452.762"/>
      <point x="355" y="450.25" type="curve"/>
      <point x="355" y="449.75" type="line"/>
      <point x="355" y="447.238"/>
      <point x="352.762" y="445"/>
      <point x="350.25" y="445" type="curve"/>
      <point x="349.75" y="445" type="line"/>
      <point x="347.238" y="445"/>
      <point x="345" y="447.238"/>
      <point x="345" y="449.75" type="curve"/>
      <point x="345" y="450.25" type="line"/>
      <point x="345" y="452.762"/>
      <point x="347.238" y="455"/>
      <point x="349.75" y="455" type="curve"/>
    </contour>
    <contour>
      <point x="249.75" y="455" type="line"/>
      <point x="250.25" y="455" type="line"/>
      <point x="252.762" y="455"/>
      <point x="255" y="452.762"/>
      <point x="255" y="450.25" type="curve"/>
      <point x="255" y="449.75" type="line"/>
      <point x="255" y="447.238"/>
      <point x="252.762" y="445"/>
      <point x="250.25" y="445" type="curve"/>
      <point x="249.75" y="445" type="line"/>
      <point x="247.238" y="445"/>
      <point x="245" y="447.238"/>
      <point x="245" y="449.75" type="curve"/>
      <point x="245" y="450.25" type="line"/>
      <point x="245" y="452.762"/>
      <point x="247.238" y="455"/>
      <point x="249.75" y="455" type="curve"/>
    </contour>
    <contour>
      <point x="149.75" y="455" type="line"/>
      <point x="150.25" y="455" type="line"/>
      <point x="152.762" y="455"/>
      <point x="155" y="452.762"/>
      <point x="155" y="450.25" type="curve"/>
      <point x="155" y="449.75" type="line"/>
      <point x="155" y="447.238"/>
      <point x="152.762" y="445"/>
      <point x="150.25" y="445" type="curve"/>
      <point x="149.75" y="445" type="line"/>
      <point x="147.238" y="445"/>
      <point x="145" y="447.238"/>
      <point x="145" y="449.75" type="curve"/>
      <point x="145" y="450.25" type="line"/>
      <point x="145" y="452.762"/>
      <point x="147.238" y="455"/>
      <point x="149.75" y="455" type="curve"/>
    </contour>
  </outline>
</glyph>
<glyph name="m" format="2">
  <advance width="600"/>
  <unicode hex="006D"/>
  <outline>
    <contour>
      <point x="449.75" y="55" type="line"/>
      <point x="450.25" y="55" type="line"/>
      <point x="452.762" y="55"/>
      <point x="455" y="52.7617"/>
      <point x="455" y="50.25" type="curve"/>
      <point x="455" y="49.75" type="line"/>
      <point x="455" y="47.2383"/>
      <point x="452.762" y="45"/>
      <point x="450.25" y="45" type="curve"/>
      <point x="449.75" y="45" type="line"/>
      <point x="447.238" y="45"/>
      <point x="445" y="47.2383"/>
      <point x="445" y="49.75" type="curve"/>
      <point x="445" y="50.25" type="line"/>
      <point x="445" y="52.7617"/>
      <point x="447.238" y="55"/>
      <point x="449.75" y="55" type="curve"/>
    </contour>
    <contour>
      <point x="49.75" y="55" type="line"/>
      <point x="50.25" y="55" type="line"/>
      <point x="52.7617" y="55"/>
      <point x="55" y="52.7617"/>
      <point x="55" y="50.25" type="curve"/>
      <point x="55" y="49.75" type="line"/>
      <point x="55" y="47.2383"/>
      <point x="52.7617" y="45"/>
      <point x="50.25" y="45" type="curve"/>
      <point x="49.75" y="45" type="line"/>
      <point x="47.2383" y="45"/>
      <point x="45" y="47.2383"/>
      <point x="45" y="49.75" type="curve"/>
      <point x="45" y="50.25" type="line"/>
      <point x="45" y="52.7617"/>
      <point x="47.2383" y="55"/>
      <point x="49.75" y="55" type="curve"/>
    </contour>
    <contour>
      <point x="449.75" y="155" type="line"/>
      <point x="450.25" y="155" type="line"/>
      <point x="452.762" y="155"/>
      <point x="455" y="152.762"/>
      <point x="455" y="150.25" type="curve"/>
      <point x="455" y="149.75" type="line"/>
      <point x="455" y="147.238"/>
      <point x="452.762" y="145"/>
      <point x="450.25" y="145" type="curve"/>
      <point x="449.75" y="145" type="line"/>
      <point x="447.238" y="145"/>
      <point x="445" y="147.238"/>
      <point x="445" y="149.75" type="curve"/>
      <point x="445" y="150.25" type="line"/>
      <point x="445" y="152.762"/>
      <point x="447.238" y="155"/>
      <point x="449.75" y="155" type="curve"/>
    </contour>
    <contour>
      <point x="249.75" y="155" type="line"/>
      <point x="250.25" y="155" type="line"/>
      <point x="252.762" y="155"/>
      <point x="255" y="152.762"/>
      <point x="255" y="150.25" type="curve"/>
      <point x="255" y="149.75" type="line"/>
      <point x="255" y="147.238"/>
      <point x="252.762" y="145"/>
      <point x="250.25" y="145" type="curve"/>
      <point x="249.75" y="145" type="line"/>
      <point x="247.238" y="145"/>
      <point x="245" y="147.238"/>
      <point x="245" y="149.75" type="curve"/>
      <point x="245" y="150.25" type="line"/>
      <point x="245" y="152.762"/>
      <point x="247.238" y="155"/>
      <point x="249.75" y="155" type="curve"/>
    </contour>
    <contour>
      <point x="49.75" y="155" type="line"/>
      <point x="50.25" y="155" type="line"/>
      <point x="52.7617" y="155"/>
      <point x="55" y="152.762"/>
      <point x="55" y="150.25" type="curve"/>
      <point x="55" y="149.75" type="line"/>
      <point x="55" y="147.238"/>
      <point x="52.7617" y="145"/>
      <point x="50.25" y="145" type="curve"/>
      <point x="49.75" y="145" type="line"/>
      <point x="47.2383" y="145"/>
      <point x="45" y="147.238"/>
      <point x="45" y="149.75" type="curve"/>
      <point x="45" y="150.25" type="line"/>
      <point x="45" y="152.762"/>
      <point x="47.2383" y="155"/>
      <point x="49.75" y="155" type="curve"/>
    </contour>
    <contour>
      <point x="449.75" y="255" type="line"/>
      <point x="450.25" y="255" type="line"/>
      <point x="452.762" y="255"/>
      <point x="455" y="252.762"/>
      <point x="455" y="250.25" type="curve"/>
      <point x="455" y="249.75" type="line"/>
      <point x="455" y="247.238"/>
      <point x="452.762" y="245"/>
      <point x="450.25" y="245" type="curve"/>
      <point x="449.75" y="245" type="line"/>
      <point x="447.238" y="245"/>
      <point x="445" y="247.238"/>
      <point x="445" y="249.75" type="curve"/>
      <point x="445" y="250.25" type="line"/>
      <point x="445" y="252.762"/>
      <point x="447.238" y="255"/>
      <point x="449.75" y="255" type="curve"/>
    </contour>
    <contour>
      <point x="249.75" y="255" type="line"/>
      <point x="250.25" y="255" type="line"/>
      <point x="252.762" y="255"/>
      <point x="255" y="252.762"/>
      <point x="255" y="250.25" type="curve"/>
      <point x="255" y="249.75" type="line"/>
      <point x="255" y="247.238"/>
      <point x="252.762" y="245"/>
      <point x="250.25" y="245" type="curve"/>
      <point x="249.75" y="245" type="line"/>
      <point x="247.238" y="245"/>
      <point x="245" y="247.238"/>
      <point x="245" y="249.75" type="curve"/>
      <point x="245" y="250.25" type="line"/>
      <point x="245" y="252.762"/>
      <point x="247.238" y="255"/>
      <point x="249.75" y="255" type="curve"/>
    </contour>
    <contour>
      <point x="49.75" y="255" type="line"/>
      <point x="50.25" y="255" type="line"/>
      <point x="52.7617" y="255"/>
      <point x="55" y="252.762"/>
      <point x="55" y="250.25" type="curve"/>
      <point x="55" y="249.75" type="line"/>
      <point x="55" y="247.238"/>
      <point x="52.7617" y="245"/>
      <point x="50.25" y="245" type="curve"/>
      <point x="49.75" y="245" type="line"/>
      <point x="47.2383" y="245"/>
      <point x="45" y="247.238"/>
      <point x="45" y="249.75" type="curve"/>
      <point x="45" y="250.25" type="line"/>
      <point x="45" y="252.762"/>
      <point x="47.2383" y="255"/>
      <point x="49.75" y="255" type="curve"/>
    </contour>
    <contour>
      <point x="449.75" y="355" type="line"/>
      <point x="450.25" y="355" type="line"/>
      <point x="452.762" y="355"/>
      <point x="455" y="352.762"/>
      <point x="455" y="350.25" type="curve"/>
      <point x="455" y="349.75" type="line"/>
      <point x="455" y="347.238"/>
      <point x="452.762" y="345"/>
      <point x="450.25" y="345" type="curve"/>
      <point x="449.75" y="345" type="line"/>
      <point x="447.238" y="345"/>
      <point x="445" y="347.238"/>
      <point x="445" y="349.75" type="curve"/>
      <point x="445" y="350.25" type="line"/>
      <point x="445" y="352.762"/>
      <point x="447.238" y="355"/>
      <point x="449.75" y="355" type="curve"/>
    </contour>
    <contour>
      <point x="249.75" y="355" type="line"/>
      <point x="250.25" y="355" type="line"/>
      <point x="252.762" y="355"/>
      <point x="255" y="352.762"/>
      <point x="255" y="350.25" type="curve"/>
      <point x="255" y="349.75" type="line"/>
      <point x="255" y="347.238"/>
      <point x="252.762" y="345"/>
      <point x="250.25" y="345" type="curve"/>
      <point x="249.75" y="345" type="line"/>
      <point x="247.238" y="345"/>
      <point x="245" y="347.238"/>
      <point x="245" y="349.75" type="curve"/>
      <point x="245" y="350.25" type="line"/>
      <point x="245" y="352.762"/>
      <point x="247.238" y="355"/>
      <point x="249.75" y="355" type="curve"/>
    </contour>
    <contour>
      <point x="49.75" y="355" type="line"/>
      <point x="50.25" y="355" type="line"/>
      <point x="52.7617" y="355"/>
      <point x="55" y="352.762"/>
      <point x="55" y="350.25" type="curve"/>
      <point x="55" y="349.75" type="line"/>
      <point x="55" y="347.238"/>
      <point x="52.7617" y="345"/>
      <point x="50.25" y="345" type="curve"/>
      <point x="49.75" y="345" type="line"/>
      <point x="47.2383" y="345"/>
      <point x="45" y="347.238"/>
      <point x="45" y="349.75" type="curve"/>
      <point x="45" y="350.25" type="line"/>
      <point x="45" y="352.762"/>
      <point x="47.2383" y="355"/>
      <point x="49.75" y="355" type="curve"/>
    </contour>
    <contour>
      <point x="349.75" y="455" type="line"/>
      <point x="350.25" y="455" type="line"/>
      <point x="352.762" y="455"/>
      <point x="355" y="452.762"/>
      <point x="355" y="450.25" type="curve"/>
      <point x="355" y="449.75" type="line"/>
      <point x="355" y="447.238"/>
      <point x="352.762" y="445"/>
      <point x="350.25" y="445" type="curve"/>
      <point x="349.75" y="445" type="line"/>
      <point x="347.238" y="445"/>
      <point x="345" y="447.238"/>
      <point x="345" y="449.75" type="curve"/>
      <point x="345" y="450.25" type="line"/>
      <point x="345" y="452.762"/>
      <point x="347.238" y="455"/>
      <point x="349.75" y="455" type="curve"/>
    </contour>
    <contour>
      <point x="149.75" y="455" type="line"/>
      <point x="150.25" y="455" type="line"/>
      <point x="152.762" y="455"/>
      <point x="155" y="452.762"/>
      <point x="155" y="450.25" type="curve"/>
      <point x="155" y="449.75" type="line"/>
      <point x="155" y="447.238"/>
      <point x="152.762" y="445"/>
      <point x="150.25" y="445" type="curve"/>
      <point x="149.75" y="445" type="line"/>
      <point x="147.238" y="445"/>
      <point x="145" y="447.238"/>
      <point x="145" y="449.75" type="curve"/>
      <point x="145" y="450.25" type="line"/>
      <point x="145" y="452.762"/>
      <point x="147.238" y="455"/>
      <point x="149.75" y="455" type="curve"/>
    </contour>
    <contour>
      <point x="49.75" y="455" type="line"/>
      <point x="50.25" y="455" type="line"/>
      <point x="52.7617" y="455"/>
      <point x="55" y="452.762"/>
      <point x="55" y="450.25" type="curve"/>
      <point x="55" y="449.75" type="line"/>
      <point x="55" y="447.238"/>
      <point x="52.7617" y="445"/>
      <point x="50.25" y="445" type="curve"/>
      <point x="49.75" y="445" type="line"/>
      <point x="47.2383" y="445"/>
      <point x="45" y="447.238"/>
      <point x="45" y="449.75" type="curve"/>
      <point x="45" y="450.25" type="line"/>
      <point x="45" y="452.762"/>
      <point x="47.2383" y="455"/>
      <point x="49.75" y="455" type="curve"/>
    </contour>
  </outline>
</glyph>
<glyph name="x" format="2">
  <advance width="600"/>
  <unicode hex="0078"/>
  <outline>
    <contour>
      <point x="450" y="55" type="line"/>
      <point x="450" y="55" type="line"/>
      <point x="453" y="55"/>
      <point x="455" y="53"/>
      <point x="455" y="50" type="curve"/>
      <point x="455" y="50" type="line"/>
      <point x="455" y="47"/>
      <point x="453" y="45"/>
      <point x="450" y="45" type="curve"/>
      <point x="450" y="45" type="line"/>
      <point x="447" y="45"/>
      <point x="445" y="47"/>
      <point x="445" y="50" type="curve"/>
      <point x="445" y="50" type="line"/>
      <point x="445" y="53"/>
      <point x="447" y="55"/>
      <point x="450" y="55" type="curve"/>
    </contour>
    <contour>
      <point x="50" y="55" type="line"/>
      <point x="50" y="55" type="line"/>
      <point x="53" y="55"/>
      <point x="55" y="53"/>
      <point x="55" y="50" type="curve"/>
      <point x="55" y="50" type="line"/>
      <point x="55" y="47"/>
      <point x="53" y="45"/>
      <point x="50" y="45" type="curve"/>
      <point x="50" y="45" type="line"/>
      <point x="47" y="45"/>
      <point x="45" y="47"/>
      <point x="45" y="50" type="curve"/>
      <point x="45" y="50" type="line"/>
      <point x="45" y="53"/>
      <point x="47" y="55"/>
      <point x="50" y="55" type="curve"/>
    </contour>
    <contour>
      <point x="350" y="155" type="line"/>
      <point x="350" y="155" type="line"/>
      <point x="353" y="155"/>
      <point x="355" y="153"/>
      <point x="355" y="150" type="curve"/>
      <point x="355" y="150" type="line"/>
      <point x="355" y="147"/>
      <point x="353" y="145"/>
      <point x="350" y="145" type="curve"/>
      <point x="350" y="145" type="line"/>
      <point x="347" y="145"/>
      <point x="345" y="147"/>
      <point x="345" y="150" type="curve"/>
      <point x="345" y="150" type="line"/>
      <point x="345" y="153"/>
      <point x="347" y="155"/>
      <point x="350" y="155" type="curve"/>
    </contour>
    <contour>
      <point x="150" y="155" type="line"/>
      <point x="150" y="155" type="line"/>
      <point x="153" y="155"/>
      <point x="155" y="153"/>
      <point x="155" y="150" type="curve"/>
      <point x="155" y="150" type="line"/>
      <point x="155" y="147"/>
      <point x="153" y="145"/>
      <point x="150" y="145" type="curve"/>
      <point x="150" y="145" type="line"/>
      <point x="147" y="145"/>
      <point x="145" y="147"/>
      <point x="145" y="150" type="curve"/>
      <point x="145" y="150" type="line"/>
      <point x="145" y="153"/>
      <point x="147" y="155"/>
      <point x="150" y="155" type="curve"/>
    </contour>
    <contour>
      <point x="250" y="255" type="line"/>
      <point x="250" y="255" type="line"/>
      <point x="253" y="255"/>
      <point x="255" y="253"/>
      <point x="255" y="250" type="curve"/>
      <point x="255" y="250" type="line"/>
      <point x="255" y="247"/>
      <point x="253" y="245"/>
      <point x="250" y="245" type="curve"/>
      <point x="250" y="245" type="line"/>
      <point x="247" y="245"/>
      <point x="245" y="247"/>
      <point x="245" y="250" type="curve"/>
      <point x="245" y="250" type="line"/>
      <point x="245" y="253"/>
      <point x="247" y="255"/>
      <point x="250" y="255" type="curve"/>
    </contour>
    <contour>
      <point x="350" y="355" type="line"/>
      <point x="350" y="355" type="line"/>
      <point x="353" y="355"/>
      <point x="355" y="353"/>
      <point x="355" y="350" type="curve"/>
      <point x="355" y="350" type="line"/>
      <point x="355" y="347"/>
      <point x="353" y="345"/>
      <point x="350" y="345" type="curve"/>
      <point x="350" y="345" type="line"/>
      <point x="347" y="345"/>
      <point x="345" y="347"/>
      <point x="345" y="350" type="curve"/>
      <point x="345" y="350" type="line"/>
      <point x="345" y="353"/>
      <point x="347" y="355"/>
      <point x="350" y="355" type="curve"/>
    </contour>
    <contour>
      <point x="150" y="355" type="line"/>
      <point x="150" y="355" type="line"/>
      <point x="153" y="355"/>
      <point x="155" y="353"/>
      <point x="155" y="350" type="curve"/>
      <point x="155" y="350" type="line"/>
      <point x="155" y="347"/>
      <point x="153" y="345"/>
      <point x="150" y="345" type="curve"/>
      <point x="150" y="345" type="line"/>
      <point x="147" y="345"/>
      <point x="145" y="347"/>
      <point x="145" y="350" type="curve"/>
      <point x="145" y="350" type="line"/>
      <point x="145" y="353"/>
      <point x="147" y="355"/>
      <point x="150" y="355" type="curve"/>
    </contour>
    <contour>
      <point x="450" y="455" type="line"/>
      <point x="450" y="455" type="line"/>
      <point x="453" y="455"/>
      <point x="455" y="453"/>
      <point x="455" y="450" type="curve"/>
      <point x="455" y="450" type="line"/>
      <point x="455" y="447"/>
      <point x="453" y="445"/>
      <point x="450" y="445" type="curve"/>
      <point x="450" y="445" type="line"/>
      <point x="447" y="445"/>
      <point x="445" y="447"/>
      <point x="445" y="450" type="curve"/>
      <point x="445" y="450" type="line"/>
      <point x="445" y="453"/>
      <point x="447" y="455"/>
      <point x="450" y="455" type="curve"/>
    </contour>
    <contour>
      <point x="50" y="455" type="line"/>
      <point x="50" y="455" type="line"/>
      <point x="53" y="455"/>
      <point x="55" y="453"/>
      <point x="55" y="450" type="curve"/>
      <point x="55" y="450" type="line"/>
      <point x="55" y="447"/>
      <point x="53" y="445"/>
      <point x="50" y="445" type="curve"/>
      <point x="50" y="445" type="line"/>
      <point x="47" y="445"/>
      <point x="45" y="447"/>
      <point x="45" y="450" type="curve"/>
      <point x="45" y="450" type="line"/>
      <point x="45" y="453"/>
      <point x="47" y="455"/>
      <point x="50" y="455" type="curve"/>
    </contour>
  </outline>
</glyph>
<glyph name="asciitilde" format="2">
  <advance width="600"/>
  <unicode hex="007E"/>
  <outline>
    <contour>
      <point x="349.75" y="455" type="line"/>
      <point x="350.25" y="455" type="line"/>
      <point x="352.762" y="455"/>
      <point x="355" y="452.762"/>
      <point x="355" y="450.25" type="curve"/>
      <point x="355" y="449.75" type="line"/>
      <point x="355" y="447.238"/>
      <point x="352.762" y="445"/>
      <point x="350.25" y="445" type="curve"/>
      <point x="349.75" y="445" type="line"/>
      <point x="347.238" y="445"/>
      <point x="345" y="447.238"/>
      <point x="345" y="449.75" type="curve"/>
      <point x="345" y="450.25" type="line"/>
      <point x="345" y="452.762"/>
      <point x="347.238" y="455"/>
      <point x="349.75" y="455" type="curve"/>
    </contour>
    <contour>
      <point x="49.75" y="455" type="line"/>
      <point x="50.25" y="455" type="line"/>
      <point x="52.7617" y="455"/>
      <point x="55" y="452.762"/>
      <point x="55" y="450.25" type="curve"/>
      <point x="55" y="449.75" type="line"/>
      <point x="55" y="447.238"/>
      <point x="52.7617" y="445"/>
      <point x="50.25" y="445" type="curve"/>
      <point x="49.75" y="445" type="line"/>
      <point x="47.2383" y="445"/>
      <point x="45" y="447.238"/>
      <point x="45" y="449.75" type="curve"/>
      <point x="45" y="450.25" type="line"/>
      <point x="45" y="452.762"/>
      <point x="47.2383" y="455"/>
      <point x="49.75" y="455" type="curve"/>
    </contour>
    <contour>
      <point x="449.75" y="555" type="line"/>
      <point x="450.25" y="555" type="line"/>
      <point x="452.762" y="555"/>
      <point x="455" y="552.762"/>
      <point x="455" y="550.25" type="curve"/>
      <point x="455" y="549.75" type="line"/>
      <point x="455" y="547.238"/>
      <point x="452.762" y="545"/>
      <point x="450.25" y="545" type="curve"/>
      <point x="449.75" y="545" type="line"/>
      <point x="447.238" y="545"/>
      <point x="445" y="547.238"/>
      <point x="445" y="549.75" type="curve"/>
      <point x="445" y="550.25" type="line"/>
      <point x="445" y="552.762"/>
      <point x="447.238" y="555"/>
      <point x="449.75" y="555" type="curve"/>
    </contour>
    <contour>
      <point x="249.75" y="555" type="line"/>
      <point x="250.25" y="555" type="line"/>
      <point x="252.762" y="555"/>
      <point x="255" y="552.762"/>
      <point x="255" y="550.25" type="curve"/>
      <point x="255" y="549.75" type="line"/>
      <point x="255" y="547.238"/>
      <point x="252.762" y="545"/>
      <point x="250.25" y="545" type="curve"/>
      <point x="249.75" y="545" type="line"/>
      <point x="247.238" y="545"/>
      <point x="245" y="547.238"/>
      <point x="245" y="549.75" type="curve"/>
      <point x="245" y="550.25" type="line"/>
      <point x="245" y="552.762"/>
      <point x="247.238" y="555"/>
      <point x="249.75" y="555" type="curve"/>
    </contour>
    <contour>
      <point x="49.75" y="555" type="line"/>
      <point x="50.25" y="555" type="line"/>
      <point x="52.7617" y="555"/>
      <point x="55" y="552.762"/>
      <point x="55" y="550.25" type="curve"/>
      <point x="55" y="549.75" type="line"/>
      <point x="55" y="547.238"/>
      <point x="52.7617" y="545"/>
      <point x="50.25" y="545" type="curve"/>
      <point x="49.75" y="545" type="line"/>
      <point x="47.2383" y="545"/>
      <point x="45" y="547.238"/>
      <point x="45" y="549.75" type="curve"/>
      <point x="45" y="550.25" type="line"/>
      <point x="45" y="552.762"/>
      <point x="47.2383" y="555"/>
      <point x="49.75" y="555" type="curve"/>
    </contour>
    <contour>
      <point x="449.75" y="655" type="line"/>
      <point x="450.25" y="655" type="line"/>
      <point x="452.762" y="655"/>
      <point x="455" y="652.762"/>
      <point x="455" y="650.25" type="curve"/>
      <point x="455" y="649.75" type="line"/>
      <point x="455" y="647.238"/>
      <point x="452.762" y="645"/>
      <point x="450.25" y="645" type="curve"/>
      <point x="449.75" y="645" type="line"/>
      <point x="447.238" y="645"/>
      <point x="445" y="647.238"/>
      <point x="445" y="649.75" type="curve"/>
      <point x="445" y="650.25" type="line"/>
      <point x="445" y="652.762"/>
      <point x="447.238" y="655"/>
      <point x="449.75" y="655" type="curve"/>
    </contour>
    <contour>
      <point x="149.75" y="655" type="line"/>
      <point x="150.25" y="655" type="line"/>
      <point x="152.762" y="655"/>
      <point x="155" y="652.762"/>
      <point x="155" y="650.25" type="curve"/>
      <point x="155" y="649.75" type="line"/>
      <point x="155" y="647.238"/>
      <point x="152.762" y="645"/>
      <point x="150.25" y="645" type="curve"/>
      <point x="149.75" y="645" type="line"/>
      <point x="147.238" y="645"/>
      <point x="145" y="647.238"/>
      <point x="145" y="649.75" type="curve"/>
      <point x="145" y="650.25" type="line"/>
      <point x="145" y="652.762"/>
      <point x="147.238" y="655"/>
      <point x="149.75" y="655" type="curve"/>
    </contour>
  </outline>
</glyph>
<glyph name="dieresis" format="2">
  <advance width="600"/>
  <unicode hex="00A8"/>
  <outline>
    <contour>
      <point x="349.75" y="755" type="line"/>
      <point x="350.25" y="755" type="line"/>
      <point x="352.762" y="755"/>
      <point x="355" y="752.762"/>
      <point x="355" y="750.25" type="curve"/>
      <point x="355" y="749.75" type="line"/>
      <point x="355" y="747.238"/>
      <point x="352.762" y="745"/>
      <point x="350.25" y="745" type="curve"/>
      <point x="349.75" y="745" type="line"/>
      <point x="347.238" y="745"/>
      <point x="345" y="747.238"/>
      <point x="345" y="749.75" type="curve"/>
      <point x="345" y="750.25" type="line"/>
      <point x="345" y="752.762"/>
      <point x="347.238" y="755"/>
      <point x="349.75" y="755" type="curve"/>
    </contour>
    <contour>
      <point x="149.75" y="755" type="line"/>
      <point x="150.25" y="755" type="line"/>
      <point x="152.762" y="755"/>
      <point x="155" y="752.762"/>
      <point x="155" y="750.25" type="curve"/>
      <point x="155" y="749.75" type="line"/>
      <point x="155" y="747.238"/>
      <point x="152.762" y="745"/>
      <point x="150.25" y="745" type="curve"/>
      <point x="149.75" y="745" type="line"/>
      <point x="147.238" y="745"/>
      <point x="145" y="747.238"/>
      <point x="145" y="749.75" type="curve"/>
      <point x="145" y="750.25" type="line"/>
      <point x="145" y="752.762"/>
      <point x="147.238" y="755"/>
      <point x="149.75" y="755" type="curve"/>
    </contour>
  </outline>
</glyph>
<glyph name="periodcentered" format="2">
  <advance width="600"/>
  <unicode hex="00B7"/>
  <outline>
    <contour>
      <point x="249.75" y="355" type="line"/>
      <point x="250.25" y="355" type="line"/>
      <point x="252.762" y="355"/>
      <point x="255" y="352.762"/>
      <point x="255" y="350.25" type="curve"/>
      <point x="255" y="349.75" type="line"/>
      <point x="255" y="347.238"/>
      <point x="252.762" y="345"/>
      <point x="250.25" y="345" type="curve"/>
      <point x="249.75" y="345" type="line"/>
      <point x="247.238" y="345"/>
      <point x="245" y="347.238"/>
      <point x="245" y="349.75" type="curve"/>
      <point x="245" y="350.25" type="line"/>
      <point x="245" y="352.762"/>
      <point x="247.238" y="355"/>
      <point x="249.75" y="355" type="curve"/>
    </contour>
  </outline>
</glyph>
<glyph name="atilde" format="2">
  <advance width="600"/>
  <unicode hex="00E3"/>
  <outline>
    <contour>
      <point x="450" y="55" type="line"/>
      <point x="450" y="55" type="line"/>
      <point x="453" y="55"/>
      <point x="455" y="53"/>
      <point x="455" y="50" type="curve"/>
      <point x="455" y="50" type="line"/>
      <point x="455" y="47"/>
      <point x="453" y="45"/>
      <point x="450" y="45" type="curve"/>
      <point x="450" y="45" type="line"/>
      <point x="447" y="45"/>
      <point x="445" y="47"/>
      <point x="445" y="50" type="curve"/>
      <point x="445" y="50" type="line"/>
      <point x="445" y="53"/>
      <point x="447" y="55"/>
      <point x="450" y="55" type="curve"/>
    </contour>
    <contour>
      <point x="350" y="55" type="line"/>
      <point x="350" y="55" type="line"/>
      <point x="353" y="55"/>
      <point x="355" y="53"/>
      <point x="355" y="50" type="curve"/>
      <point x="355" y="50" type="line"/>
      <point x="355" y="47"/>
      <point x="353" y="45"/>
      <point x="350" y="45" type="curve"/>
      <point x="350" y="45" type="line"/>
      <point x="347" y="45"/>
      <point x="345" y="47"/>
      <point x="345" y="50" type="curve"/>
      <point x="345" y="50" type="line"/>
      <point x="345" y="53"/>
      <point x="347" y="55"/>
      <point x="350" y="55" type="curve"/>
    </contour>
    <contour>
      <point x="250" y="55" type="line"/>
      <point x="250" y="55" type="line"/>
      <point x="253" y="55"/>
      <point x="255" y="53"/>
      <point x="255" y="50" type="curve"/>
      <point x="255" y="50" type="line"/>
      <point x="255" y="47"/>
      <point x="253" y="45"/>
      <point x="250" y="45" type="curve"/>
      <point x="250" y="45" type="line"/>
      <point x="247" y="45"/>
      <point x="245" y="47"/>
      <point x="245" y="50" type="curve"/>
      <point x="245" y="50" type="line"/>
      <point x="245" y="53"/>
      <point x="247" y="55"/>
      <point x="250" y="55" type="curve"/>
    </contour>
    <contour>
      <point x="150" y="55" type="line"/>
      <point x="150" y="55" type="line"/>
      <point x="153" y="55"/>
      <point x="155" y="53"/>
      <point x="155" y="50" type="curve"/>
      <point x="155" y="50" type="line"/>
      <point x="155" y="47"/>
      <point x="153" y="45"/>
      <point x="150" y="45" type="curve"/>
      <point x="150" y="45" type="line"/>
      <point x="147" y="45"/>
      <point x="145" y="47"/>
      <point x="145" y="50" type="curve"/>
      <point x="145" y="50" type="line"/>
      <point x="145" y="53"/>
      <point x="147" y="55"/>
      <point x="150" y="55" type="curve"/>
    </contour>
    <contour>
      <point x="450" y="155" type="line"/>
      <point x="450" y="155" type="line"/>
      <point x="453" y="155"/>
      <point x="455" y="153"/>
      <point x="455" y="150" type="curve"/>
      <point x="455" y="150" type="line"/>
      <point x="455" y="147"/>
      <point x="453" y="145"/>
      <point x="450" y="145" type="curve"/>
      <point x="450" y="145" type="line"/>
      <point x="447" y="145"/>
      <point x="445" y="147"/>
      <point x="445" y="150" type="curve"/>
      <point x="445" y="150" type="line"/>
      <point x="445" y="153"/>
      <point x="447" y="155"/>
      <point x="450" y="155" type="curve"/>
    </contour>
    <contour>
      <point x="50" y="155" type="line"/>
      <point x="50" y="155" type="line"/>
      <point x="53" y="155"/>
      <point x="55" y="153"/>
      <point x="55" y="150" type="curve"/>
      <point x="55" y="150" type="line"/>
      <point x="55" y="147"/>
      <point x="53" y="145"/>
      <point x="50" y="145" type="curve"/>
      <point x="50" y="145" type="line"/>
      <point x="47" y="145"/>
      <point x="45" y="147"/>
      <point x="45" y="150" type="curve"/>
      <point x="45" y="150" type="line"/>
      <point x="45" y="153"/>
      <point x="47" y="155"/>
      <point x="50" y="155" type="curve"/>
    </contour>
    <contour>
      <point x="450" y="255" type="line"/>
      <point x="450" y="255" type="line"/>
      <point x="453" y="255"/>
      <point x="455" y="253"/>
      <point x="455" y="250" type="curve"/>
      <point x="455" y="250" type="line"/>
      <point x="455" y="247"/>
      <point x="453" y="245"/>
      <point x="450" y="245" type="curve"/>
      <point x="450" y="245" type="line"/>
      <point x="447" y="245"/>
      <point x="445" y="247"/>
      <point x="445" y="250" type="curve"/>
      <point x="445" y="250" type="line"/>
      <point x="445" y="253"/>
      <point x="447" y="255"/>
      <point x="450" y="255" type="curve"/>
    </contour>
    <contour>
      <point x="350" y="255" type="line"/>
      <point x="350" y="255" type="line"/>
      <point x="353" y="255"/>
      <point x="355" y="253"/>
      <point x="355" y="250" type="curve"/>
      <point x="355" y="250" type="line"/>
      <point x="355" y="247"/>
      <point x="353" y="245"/>
      <point x="350" y="245" type="curve"/>
      <point x="350" y="245" type="line"/>
      <point x="347" y="245"/>
      <point x="345" y="247"/>
      <point x="345" y="250" type="curve"/>
      <point x="345" y="250" type="line"/>
      <point x="345" y="253"/>
      <point x="347" y="255"/>
      <point x="350" y="255" type="curve"/>
    </contour>
    <contour>
      <point x="250" y="255" type="line"/>
      <point x="250" y="255" type="line"/>
      <point x="253" y="255"/>
      <point x="255" y="253"/>
      <point x="255" y="250" type="curve"/>
      <point x="255" y="250" type="line"/>
      <point x="255" y="247"/>
      <point x="253" y="245"/>
      <point x="250" y="245" type="curve"/>
      <point x="250" y="245" type="line"/>
      <point x="247" y="245"/>
      <point x="245" y="247"/>
      <point x="245" y="250" type="curve"/>
      <point x="245" y="250" type="line"/>
      <point x="245" y="253"/>
      <point x="247" y="255"/>
      <point x="250" y="255" type="curve"/>
    </contour>
    <contour>
      <point x="150" y="255" type="line"/>
      <point x="150" y="255" type="line"/>
      <point x="153" y="255"/>
      <point x="155" y="253"/>
      <point x="155" y="250" type="curve"/>
      <point x="155" y="250" type="line"/>
      <point x="155" y="247"/>
      <point x="153" y="245"/>
      <point x="150" y="245" type="curve"/>
      <point x="150" y="245" type="line"/>
      <point x="147" y="245"/>
      <point x="145" y="247"/>
      <point x="145" y="250" type="curve"/>
      <point x="145" y="250" type="line"/>
      <point x="145" y="253"/>
      <point x="147" y="255"/>
      <point x="150" y="255" type="curve"/>
    </contour>
    <contour>
      <point x="450" y="355" type="line"/>
      <point x="450" y="355" type="line"/>
      <point x="453" y="355"/>
      <point x="455" y="353"/>
      <point x="455" y="350" type="curve"/>
      <point x="455" y="350" type="line"/>
      <point x="455" y="347"/>
      <point x="453" y="345"/>
      <point x="450" y="345" type="curve"/>
      <point x="450" y="345" type="line"/>
      <point x="447" y="345"/>
      <point x="445" y="347"/>
      <point x="445" y="350" type="curve"/>
      <point x="445" y="350" type="line"/>
      <point x="445" y="353"/>
      <point x="447" y="355"/>
      <point x="450" y="355" type="curve"/>
    </contour>
    <contour>
      <point x="350" y="455" type="line"/>
      <point x="350" y="455" type="line"/>
      <point x="353" y="455"/>
      <point x="355" y="453"/>
      <point x="355" y="450" type="curve"/>
      <point x="355" y="450" type="line"/>
      <point x="355" y="447"/>
      <point x="353" y="445"/>
      <point x="350" y="445" type="curve"/>
      <point x="350" y="445" type="line"/>
      <point x="347" y="445"/>
      <point x="345" y="447"/>
      <point x="345" y="450" type="curve"/>
      <point x="345" y="450" type="line"/>
      <point x="345" y="453"/>
      <point x="347" y="455"/>
      <point x="350" y="455" type="curve"/>
    </contour>
    <contour>
      <point x="250" y="455" type="line"/>
      <point x="250" y="455" type="line"/>
      <point x="253" y="455"/>
      <point x="255" y="453"/>
      <point x="255" y="450" type="curve"/>
      <point x="255" y="450" type="line"/>
      <point x="255" y="447"/>
      <point x="253" y="445"/>
      <point x="250" y="445" type="curve"/>
      <point x="250" y="445" type="line"/>
      <point x="247" y="445"/>
      <point x="245" y="447"/>
      <point x="245" y="450" type="curve"/>
      <point x="245" y="450" type="line"/>
      <point x="245" y="453"/>
      <point x="247" y="455"/>
      <point x="250" y="455" type="curve"/>
    </contour>
    <contour>
      <point x="150" y="455" type="line"/>
      <point x="150" y="455" type="line"/>
      <point x="153" y="455"/>
      <point x="155" y="453"/>
      <point x="155" y="450" type="curve"/>
      <point x="155" y="450" type="line"/>
      <point x="155" y="447"/>
      <point x="153" y="445"/>
      <point x="150" y="445" type="curve"/>
      <point x="150" y="445" type="line"/>
      <point x="147" y="445"/>
      <point x="145" y="447"/>
      <point x="145" y="450" type="curve"/>
      <point x="145" y="450" type="line"/>
      <point x="145" y="453"/>
      <point x="147" y="455"/>
      <point x="150" y="455" type="curve"/>
    </contour>
    <contour>
      <point x="350" y="655" type="line"/>
      <point x="350" y="655" type="line"/>
      <point x="353" y="655"/>
      <point x="355" y="653"/>
      <point x="355" y="650" type="curve"/>
      <point x="355" y="650" type="line"/>
      <point x="355" y="647"/>
      <point x="353" y="645"/>
      <point x="350" y="645" type="curve"/>
      <point x="350" y="645" type="line"/>
      <point x="347" y="645"/>
      <point x="345" y="647"/>
      <point x="345" y="650" type="curve"/>
      <point x="345" y="650" type="line"/>
      <point x="345" y="653"/>
      <point x="347" y="655"/>
      <point x="350" y="655" type="curve"/>
    </contour>
    <contour>
      <point x="150" y="655" type="line"/>
      <point x="150" y="655" type="line"/>
      <point x="153" y="655"/>
      <point x="155" y="653"/>
      <point x="155" y="650" type="curve"/>
      <point x="155" y="650" type="line"/>
      <point x="155" y="647"/>
      <point x="153" y="645"/>
      <point x="150" y="645" type="curve"/>
      <point x="150" y="645" type="line"/>
      <point x="147" y="645"/>
      <point x="145" y="647"/>
      <point x="145" y="650" type="curve"/>
      <point x="145" y="650" type="line"/>
      <point x="145" y="653"/>
      <point x="147" y="655"/>
      <point x="150" y="655" type="curve"/>
    </contour>
    <contour>
      <point x="450" y="755" type="line"/>
      <point x="450" y="755" type="line"/>
      <point x="453" y="755"/>
      <point x="455" y="753"/>
      <point x="455" y="750" type="curve"/>
      <point x="455" y="750" type="line"/>
      <point x="455" y="747"/>
      <point x="453" y="745"/>
      <point x="450" y="745" type="curve"/>
      <point x="450" y="745" type="line"/>
      <point x="447" y="745"/>
      <point x="445" y="747"/>
      <point x="445" y="750" type="curve"/>
      <point x="445" y="750" type="line"/>
      <point x="445" y="753"/>
      <point x="447" y="755"/>
      <point x="450" y="755" type="curve"/>
    </contour>
    <contour>
      <point x="250" y="755" type="line"/>
      <point x="250" y="755" type="line"/>
      <point x="253" y="755"/>
      <point x="255" y="753"/>
      <point x="255" y="750" type="curve"/>
      <point x="255" y="750" type="line"/>
      <point x="255" y="747"/>
      <point x="253" y="745"/>
      <point x="250" y="745" type="curve"/>
      <point x="250" y="745" type="line"/>
      <point x="247" y="745"/>
      <point x="245" y="747"/>
      <point x="245" y="750" type="curve"/>
      <point x="245" y="750" type="line"/>
      <point x="245" y="753"/>
      <point x="247" y="755"/>
      <point x="250" y="755" type="curve"/>
    </contour>
  </outline>
</glyph>
<glyph name="Dcroat" format="2">
  <advance width="600"/>
  <unicode hex="0110"/>
  <outline>
    <contour>
      <point x="450" y="55" type="line"/>
      <point x="450" y="55" type="line"/>
      <point x="453" y="55"/>
      <point x="455" y="53"/>
      <point x="455" y="50" type="curve"/>
      <point x="455" y="50" type="line"/>
      <point x="455" y="47"/>
      <point x="453" y="45"/>
      <point x="450" y="45" type="curve"/>
      <point x="450" y="45" type="line"/>
      <point x="447" y="45"/>
      <point x="445" y="47"/>
      <point x="445" y="50" type="curve"/>
      <point x="445" y="50" type="line"/>
      <point x="445" y="53"/>
      <point x="447" y="55"/>
      <point x="450" y="55" type="curve"/>
    </contour>
    <contour>
      <point x="350" y="55" type="line"/>
      <point x="350" y="55" type="line"/>
      <point x="353" y="55"/>
      <point x="355" y="53"/>
      <point x="355" y="50" type="curve"/>
      <point x="355" y="50" type="line"/>
      <point x="355" y="47"/>
      <point x="353" y="45"/>
      <point x="350" y="45" type="curve"/>
      <point x="350" y="45" type="line"/>
      <point x="347" y="45"/>
      <point x="345" y="47"/>
      <point x="345" y="50" type="curve"/>
      <point x="345" y="50" type="line"/>
      <point x="345" y="53"/>
      <point x="347" y="55"/>
      <point x="350" y="55" type="curve"/>
    </contour>
    <contour>
      <point x="250" y="55" type="line"/>
      <point x="250" y="55" type="line"/>
      <point x="253" y="55"/>
      <point x="255" y="53"/>
      <point x="255" y="50" type="curve"/>
      <point x="255" y="50" type="line"/>
      <point x="255" y="47"/>
      <point x="253" y="45"/>
      <point x="250" y="45" type="curve"/>
      <point x="250" y="45" type="line"/>
      <point x="247" y="45"/>
      <point x="245" y="47"/>
      <point x="245" y="50" type="curve"/>
      <point x="245" y="50" type="line"/>
      <point x="245" y="53"/>
      <point x="247" y="55"/>
      <point x="250" y="55" type="curve"/>
    </contour>
    <contour>
      <point x="150" y="55" type="line"/>
      <point x="150" y="55" type="line"/>
      <point x="153" y="55"/>
      <point x="155" y="53"/>
      <point x="155" y="50" type="curve"/>
      <point x="155" y="50" type="line"/>
      <point x="155" y="47"/>
      <point x="153" y="45"/>
      <point x="150" y="45" type="curve"/>
      <point x="150" y="45" type="line"/>
      <point x="147" y="45"/>
      <point x="145" y="47"/>
      <point x="145" y="50" type="curve"/>
      <point x="145" y="50" type="line"/>
      <point x="145" y="53"/>
      <point x="147" y="55"/>
      <point x="150" y="55" type="curve"/>
    </contour>
    <contour>
      <point x="550" y="155" type="line"/>
      <point x="550" y="155" type="line"/>
      <point x="553" y="155"/>
      <point x="555" y="153"/>
      <point x="555" y="150" type="curve"/>
      <point x="555" y="150" type="line"/>
      <point x="555" y="147"/>
      <point x="553" y="145"/>
      <point x="550" y="145" type="curve"/>
      <point x="550" y="145" type="line"/>
      <point x="547" y="145"/>
      <point x="545" y="147"/>
      <point x="545" y="150" type="curve"/>
      <point x="545" y="150" type="line"/>
      <point x="545" y="153"/>
      <point x="547" y="155"/>
      <point x="550" y="155" type="curve"/>
    </contour>
    <contour>
      <point x="150" y="155" type="line"/>
      <point x="150" y="155" type="line"/>
      <point x="153" y="155"/>
      <point x="155" y="153"/>
      <point x="155" y="150" type="curve"/>
      <point x="155" y="150" type="line"/>
      <point x="155" y="147"/>
      <point x="153" y="145"/>
      <point x="150" y="145" type="curve"/>
      <point x="150" y="145" type="line"/>
      <point x="147" y="145"/>
      <point x="145" y="147"/>
      <point x="145" y="150" type="curve"/>
      <point x="145" y="150" type="line"/>
      <point x="145" y="153"/>
      <point x="147" y="155"/>
      <point x="150" y="155" type="curve"/>
    </contour>
    <contour>
      <point x="550" y="255" type="line"/>
      <point x="550" y="255" type="line"/>
      <point x="553" y="255"/>
      <point x="555" y="253"/>
      <point x="555" y="250" type="curve"/>
      <point x="555" y="250" type="line"/>
      <point x="555" y="247"/>
      <point x="553" y="245"/>
      <point x="550" y="245" type="curve"/>
      <point x="550" y="245" type="line"/>
      <point x="547" y="245"/>
      <point x="545" y="247"/>
      <point x="545" y="250" type="curve"/>
      <point x="545" y="250" type="line"/>
      <point x="545" y="253"/>
      <point x="547" y="255"/>
      <point x="550" y="255" type="curve"/>
    </contour>
    <contour>
      <point x="150" y="255" type="line"/>
      <point x="150" y="255" type="line"/>
      <point x="153" y="255"/>
      <point x="155" y="253"/>
      <point x="155" y="250" type="curve"/>
      <point x="155" y="250" type="line"/>
      <point x="155" y="247"/>
      <point x="153" y="245"/>
      <point x="150" y="245" type="curve"/>
      <point x="150" y="245" type="line"/>
      <point x="147" y="245"/>
      <point x="145" y="247"/>
      <point x="145" y="250" type="curve"/>
      <point x="145" y="250" type="line"/>
      <point x="145" y="253"/>
      <point x="147" y="255"/>
      <point x="150" y="255" type="curve"/>
    </contour>
    <contour>
      <point x="550" y="355" type="line"/>
      <point x="550" y="355" type="line"/>
      <point x="553" y="355"/>
      <point x="555" y="353"/>
      <point x="555" y="350" type="curve"/>
      <point x="555" y="350" type="line"/>
      <point x="555" y="347"/>
      <point x="553" y="345"/>
      <point x="550" y="345" type="curve"/>
      <point x="550" y="345" type="line"/>
      <point x="547" y="345"/>
      <point x="545" y="347"/>
      <point x="545" y="350" type="curve"/>
      <point x="545" y="350" type="line"/>
      <point x="545" y="353"/>
      <point x="547" y="355"/>
      <point x="550" y="355" type="curve"/>
    </contour>
    <contour>
      <point x="250" y="355" type="line"/>
      <point x="250" y="355" type="line"/>
      <point x="253" y="355"/>
      <point x="255" y="353"/>
      <point x="255" y="350" type="curve"/>
      <point x="255" y="350" type="line"/>
      <point x="255" y="347"/>
      <point x="253" y="345"/>
      <point x="250" y="345" type="curve"/>
      <point x="250" y="345" type="line"/>
      <point x="247" y="345"/>
      <point x="245" y="347"/>
      <point x="245" y="350" type="curve"/>
      <point x="245" y="350" type="line"/>
      <point x="245" y="353"/>
      <point x="247" y="355"/>
      <point x="250" y="355" type="curve"/>
    </contour>
    <contour>
      <point x="150" y="355" type="line"/>
      <point x="150" y="355" type="line"/>
      <point x="153" y="355"/>
      <point x="155" y="353"/>
      <point x="155" y="350" type="curve"/>
      <point x="155" y="350" type="line"/>
      <point x="155" y="347"/>
      <point x="153" y="345"/>
      <point x="150" y="345" type="curve"/>
      <point x="150" y="345" type="line"/>
      <point x="147" y="345"/>
      <point x="145" y="347"/>
      <point x="145" y="350" type="curve"/>
      <point x="145" y="350" type="line"/>
      <point x="145" y="353"/>
      <point x="147" y="355"/>
      <point x="150" y="355" type="curve"/>
    </contour>
    <contour>
      <point x="50" y="355" type="line"/>
      <point x="50" y="355" type="line"/>
      <point x="53" y="355"/>
      <point x="55" y="353"/>
      <point x="55" y="350" type="curve"/>
      <point x="55" y="350" type="line"/>
      <point x="55" y="347"/>
      <point x="53" y="345"/>
      <point x="50" y="345" type="curve"/>
      <point x="50" y="345" type="line"/>
      <point x="47" y="345"/>
      <point x="45" y="347"/>
      <point x="45" y="350" type="curve"/>
      <point x="45" y="350" type="line"/>
      <point x="45" y="353"/>
      <point x="47" y="355"/>
      <point x="50" y="355" type="curve"/>
    </contour>
    <contour>
      <point x="550" y="455" type="line"/>
      <point x="550" y="455" type="line"/>
      <point x="553" y="455"/>
      <point x="555" y="453"/>
      <point x="555" y="450" type="curve"/>
      <point x="555" y="450" type="line"/>
      <point x="555" y="447"/>
      <point x="553" y="445"/>
      <point x="550" y="445" type="curve"/>
      <point x="550" y="445" type="line"/>
      <point x="547" y="445"/>
      <point x="545" y="447"/>
      <point x="545" y="450" type="curve"/>
      <point x="545" y="450" type="line"/>
      <point x="545" y="453"/>
      <point x="547" y="455"/>
      <point x="550" y="455" type="curve"/>
    </contour>
    <contour>
      <point x="150" y="455" type="line"/>
      <point x="150" y="455" type="line"/>
      <point x="153" y="455"/>
      <point x="155" y="453"/>
      <point x="155" y="450" type="curve"/>
      <point x="155" y="450" type="line"/>
      <point x="155" y="447"/>
      <point x="153" y="445"/>
      <point x="150" y="445" type="curve"/>
      <point x="150" y="445" type="line"/>
      <point x="147" y="445"/>
      <point x="145" y="447"/>
      <point x="145" y="450" type="curve"/>
      <point x="145" y="450" type="line"/>
      <point x="145" y="453"/>
      <point x="147" y="455"/>
      <point x="150" y="455" type="curve"/>
    </contour>
    <contour>
      <point x="550" y="555" type="line"/>
      <point x="550" y="555" type="line"/>
      <point x="553" y="555"/>
      <point x="555" y="553"/>
      <point x="555" y="550" type="curve"/>
      <point x="555" y="550" type="line"/>
      <point x="555" y="547"/>
      <point x="553" y="545"/>
      <point x="550" y="545" type="curve"/>
      <point x="550" y="545" type="line"/>
      <point x="547" y="545"/>
      <point x="545" y="547"/>
      <point x="545" y="550" type="curve"/>
      <point x="545" y="550" type="line"/>
      <point x="545" y="553"/>
      <point x="547" y="555"/>
      <point x="550" y="555" type="curve"/>
    </contour>
    <contour>
      <point x="150" y="555" type="line"/>
      <point x="150" y="555" type="line"/>
      <point x="153" y="555"/>
      <point x="155" y="553"/>
      <point x="155" y="550" type="curve"/>
      <point x="155" y="550" type="line"/>
      <point x="155" y="547"/>
      <point x="153" y="545"/>
      <point x="150" y="545" type="curve"/>
      <point x="150" y="545" type="line"/>
      <point x="147" y="545"/>
      <point x="145" y="547"/>
      <point x="145" y="550" type="curve"/>
      <point x="145" y="550" type="line"/>
      <point x="145" y="553"/>
      <point x="147" y="555"/>
      <point x="150" y="555" type="curve"/>
    </contour>
    <contour>
      <point x="450" y="655" type="line"/>
      <point x="450" y="655" type="line"/>
      <point x="453" y="655"/>
      <point x="455" y="653"/>
      <point x="455" y="650" type="curve"/>
      <point x="455" y="650" type="line"/>
      <point x="455" y="647"/>
      <point x="453" y="645"/>
      <point x="450" y="645" type="curve"/>
      <point x="450" y="645" type="line"/>
      <point x="447" y="645"/>
      <point x="445" y="647"/>
      <point x="445" y="650" type="curve"/>
      <point x="445" y="650" type="line"/>
      <point x="445" y="653"/>
      <point x="447" y="655"/>
      <point x="450" y="655" type="curve"/>
    </contour>
    <contour>
      <point x="350" y="655" type="line"/>
      <point x="350" y="655" type="line"/>
      <point x="353" y="655"/>
      <point x="355" y="653"/>
      <point x="355" y="650" type="curve"/>
      <point x="355" y="650" type="line"/>
      <point x="355" y="647"/>
      <point x="353" y="645"/>
      <point x="350" y="645" type="curve"/>
      <point x="350" y="645" type="line"/>
      <point x="347" y="645"/>
      <point x="345" y="647"/>
      <point x="345" y="650" type="curve"/>
      <point x="345" y="650" type="line"/>
      <point x="345" y="653"/>
      <point x="347" y="655"/>
      <point x="350" y="655" type="curve"/>
    </contour>
    <contour>
      <point x="250" y="655" type="line"/>
      <point x="250" y="655" type="line"/>
      <point x="253" y="655"/>
      <point x="255" y="653"/>
      <point x="255" y="650" type="curve"/>
      <point x="255" y="650" type="line"/>
      <point x="255" y="647"/>
      <point x="253" y="645"/>
      <point x="250" y="645" type="curve"/>
      <point x="250" y="645" type="line"/>
      <point x="247" y="645"/>
      <point x="245" y="647"/>
      <point x="245" y="650" type="curve"/>
      <point x="245" y="650" type="line"/>
      <point x="245" y="653"/>
      <point x="247" y="655"/>
      <point x="250" y="655" type="curve"/>
    </contour>
    <contour>
      <point x="150" y="655" type="line"/>
      <point x="150" y="655" type="line"/>
      <point x="153" y="655"/>
      <point x="155" y="653"/>
      <point x="155" y="650" type="curve"/>
      <point x="155" y="650" type="line"/>
      <point x="155" y="647"/>
      <point x="153" y="645"/>
      <point x="150" y="645" type="curve"/>
      <point x="150" y="645" type="line"/>
      <point x="147" y="645"/>
      <point x="145" y="647"/>
      <point x="145" y="650" type="curve"/>
      <point x="145" y="650" type="line"/>
      <point x="145" y="653"/>
      <point x="147" y="655"/>
      <point x="150" y="655" type="curve"/>
    </contour>
  </outline>
</glyph>
<glyph name="iogonek" format="2">
  <advance width="600"/>
  <unicode hex="012F"/>
  <outline>
    <contour>
      <point x="349.75" y="-145" type="line"/>
      <point x="350.25" y="-145" type="line"/>
      <point x="352.762" y="-145"/>
      <point x="355" y="-147.238"/>
      <point x="355" y="-149.75" type="curve"/>
      <point x="355" y="-150.25" type="line"/>
      <point x="355" y="-152.762"/>
      <point x="352.762" y="-155"/>
      <point x="350.25" y="-155" type="curve"/>
      <point x="349.75" y="-155" type="line"/>
      <point x="347.238" y="-155"/>
      <point x="345" y="-152.762"/>
      <point x="345" y="-150.25" type="curve"/>
      <point x="345" y="-149.75" type="line"/>
      <point x="345" y="-147.238"/>
      <point x="347.238" y="-145"/>
      <point x="349.75" y="-145" type="curve"/>
    </contour>
    <contour>
      <point x="249.75" y="-145" type="line"/>
      <point x="250.25" y="-145" type="line"/>
      <point x="252.762" y="-145"/>
      <point x="255" y="-147.238"/>
      <point x="255" y="-149.75" type="curve"/>
      <point x="255" y="-150.25" type="line"/>
      <point x="255" y="-152.762"/>
      <point x="252.762" y="-155"/>
      <point x="250.25" y="-155" type="curve"/>
      <point x="249.75" y="-155" type="line"/>
      <point x="247.238" y="-155"/>
      <point x="245" y="-152.762"/>
      <point x="245" y="-150.25" type="curve"/>
      <point x="245" y="-149.75" type="line"/>
      <point x="245" y="-147.238"/>
      <point x="247.238" y="-145"/>
      <point x="249.75" y="-145" type="curve"/>
    </contour>
    <contour>
      <point x="249.75" y="-45" type="line"/>
      <point x="250.25" y="-45" type="line"/>
      <point x="252.762" y="-45"/>
      <point x="255" y="-47.2383"/>
      <point x="255" y="-49.75" type="curve"/>
      <point x="255" y="-50.25" type="line"/>
      <point x="255" y="-52.7617"/>
      <point x="252.762" y="-55"/>
      <point x="250.25" y="-55" type="curve"/>
      <point x="249.75" y="-55" type="line"/>
      <point x="247.238" y="-55"/>
      <point x="245" y="-52.7617"/>
      <point x="245" y="-50.25" type="curve"/>
      <point x="245" y="-49.75" type="line"/>
      <point x="245" y="-47.2383"/>
      <point x="247.238" y="-45"/>
      <point x="249.75" y="-45" type="curve"/>
    </contour>
    <contour>
      <point x="349.75" y="55" type="line"/>
      <point x="350.25" y="55" type="line"/>
      <point x="352.762" y="55"/>
      <point x="355" y="52.7617"/>
      <point x="355" y="50.25" type="curve"/>
      <point x="355" y="49.75" type="line"/>
      <point x="355" y="47.2383"/>
      <point x="352.762" y="45"/>
      <point x="350.25" y="45" type="curve"/>
      <point x="349.75" y="45" type="line"/>
      <point x="347.238" y="45"/>
      <point x="345" y="47.2383"/>
      <point x="345" y="49.75" type="curve"/>
      <point x="345" y="50.25" type="line"/>
      <point x="345" y="52.7617"/>
      <point x="347.238" y="55"/>
      <point x="349.75" y="55" type="curve"/>
    </contour>
    <contour>
      <point x="249.75" y="55" type="line"/>
      <point x="250.25" y="55" type="line"/>
      <point x="252.762" y="55"/>
      <point x="255" y="52.7617"/>
      <point x="255" y="50.25" type="curve"/>
      <point x="255" y="49.75" type="line"/>
      <point x="255" y="47.2383"/>
      <point x="252.762" y="45"/>
      <point x="250.25" y="45" type="curve"/>
      <point x="249.75" y="45" type="line"/>
      <point x="247.238" y="45"/>
      <point x="245" y="47.2383"/>
      <point x="245" y="49.75" type="curve"/>
      <point x="245" y="50.25" type="line"/>
      <point x="245" y="52.7617"/>
      <point x="247.238" y="55"/>
      <point x="249.75" y="55" type="curve"/>
    </contour>
    <contour>
      <point x="149.75" y="55" type="line"/>
      <point x="150.25" y="55" type="line"/>
      <point x="152.762" y="55"/>
      <point x="155" y="52.7617"/>
      <point x="155" y="50.25" type="curve"/>
      <point x="155" y="49.75" type="line"/>
      <point x="155" y="47.2383"/>
      <point x="152.762" y="45"/>
      <point x="150.25" y="45" type="curve"/>
      <point x="149.75" y="45" type="line"/>
      <point x="147.238" y="45"/>
      <point x="145" y="47.2383"/>
      <point x="145" y="49.75" type="curve"/>
      <point x="145" y="50.25" type="line"/>
      <point x="145" y="52.7617"/>
      <point x="147.238" y="55"/>
      <point x="149.75" y="55" type="curve"/>
    </contour>
    <contour>
      <point x="249.75" y="155" type="line"/>
      <point x="250.25" y="155" type="line"/>
      <point x="252.762" y="155"/>
      <point x="255" y="152.762"/>
      <point x="255" y="150.25" type="curve"/>
      <point x="255" y="149.75" type="line"/>
      <point x="255" y="147.238"/>
      <point x="252.762" y="145"/>
      <point x="250.25" y="145" type="curve"/>
      <point x="249.75" y="145" type="line"/>
      <point x="247.238" y="145"/>
      <point x="245" y="147.238"/>
      <point x="245" y="149.75" type="curve"/>
      <point x="245" y="150.25" type="line"/>
      <point x="245" y="152.762"/>
      <point x="247.238" y="155"/>
      <point x="249.75" y="155" type="curve"/>
    </contour>
    <contour>
      <point x="249.75" y="255" type="line"/>
      <point x="250.25" y="255" type="line"/>
      <point x="252.762" y="255"/>
      <point x="255" y="252.762"/>
      <point x="255" y="250.25" type="curve"/>
      <point x="255" y="249.75" type="line"/>
      <point x="255" y="247.238"/>
      <point x="252.762" y="245"/>
      <point x="250.25" y="245" type="curve"/>
      <point x="249.75" y="245" type="line"/>
      <point x="247.238" y="245"/>
      <point x="245" y="247.238"/>
      <point x="245" y="249.75" type="curve"/>
      <point x="245" y="250.25" type="line"/>
      <point x="245" y="252.762"/>
      <point x="247.238" y="255"/>
      <point x="249.75" y="255" type="curve"/>
    </contour>
    <contour>
      <point x="249.75" y="355" type="line"/>
      <point x="250.25" y="355" type="line"/>
      <point x="252.762" y="355"/>
      <point x="255" y="352.762"/>
      <point x="255" y="350.25" type="curve"/>
      <point x="255" y="349.75" type="line"/>
      <point x="255" y="347.238"/>
      <point x="252.762" y="345"/>
      <point x="250.25" y="345" type="curve"/>
      <point x="249.75" y="345" type="line"/>
      <point x="247.238" y="345"/>
      <point x="245" y="347.238"/>
      <point x="245" y="349.75" type="curve"/>
      <point x="245" y="350.25" type="line"/>
      <point x="245" y="352.762"/>
      <point x="247.238" y="355"/>
      <point x="249.75" y="355" type="curve"/>
    </contour>
    <contour>
      <point x="249.75" y="455" type="line"/>
      <point x="250.25" y="455" type="line"/>
      <point x="252.762" y="455"/>
      <point x="255" y="452.762"/>
      <point x="255" y="450.25" type="curve"/>
      <point x="255" y="449.75" type="line"/>
      <point x="255" y="447.238"/>
      <point x="252.762" y="445"/>
      <point x="250.25" y="445" type="curve"/>
      <point x="249.75" y="445" type="line"/>
      <point x="247.238" y="445"/>
      <point x="245" y="447.238"/>
      <point x="245" y="449.75" type="curve"/>
      <point x="245" y="450.25" type="line"/>
      <point x="245" y="452.762"/>
      <point x="247.238" y="455"/>
      <point x="249.75" y="455" type="curve"/>
    </contour>
    <contour>
      <point x="149.75" y="455" type="line"/>
      <point x="150.25" y="455" type="line"/>
      <point x="152.762" y="455"/>
      <point x="155" y="452.762"/>
      <point x="155" y="450.25" type="curve"/>
      <point x="155" y="449.75" type="line"/>
      <point x="155" y="447.238"/>
      <point x="152.762" y="445"/>
      <point x="150.25" y="445" type="curve"/>
      <point x="149.75" y="445" type="line"/>
      <point x="147.238" y="445"/>
      <point x="145" y="447.238"/>
      <point x="145" y="449.75" type="curve"/>
      <point x="145" y="450.25" type="line"/>
      <point x="145" y="452.762"/>
      <point x="147.238" y="455"/>
      <point x="149.75" y="455" type="curve"/>
    </contour>
    <contour>
      <point x="249.75" y="655" type="line"/>
      <point x="250.25" y="655" type="line"/>
      <point x="252.762" y="655"/>
      <point x="255" y="652.762"/>
      <point x="255" y="650.25" type="curve"/>
      <point x="255" y="649.75" type="line"/>
      <point x="255" y="647.238"/>
      <point x="252.762" y="645"/>
      <point x="250.25" y="645" type="curve"/>
      <point x="249.75" y="645" type="line"/>
      <point x="247.238" y="645"/>
      <point x="245" y="647.238"/>
      <point x="245" y="649.75" type="curve"/>
      <point x="245" y="650.25" type="line"/>
      <point x="245" y="652.762"/>
      <point x="247.238" y="655"/>
      <point x="249.75" y="655" type="curve"/>
    </contour>
  </outline>
</glyph>
<glyph name="Scaron" format="2">
  <advance width="600"/>
  <unicode hex="0160"/>
  <outline>
    <contour>
      <point x="350" y="55" type="line"/>
      <point x="350" y="55" type="line"/>
      <point x="353" y="55"/>
      <point x="355" y="53"/>
      <point x="355" y="50" type="curve"/>
      <point x="355" y="50" type="line"/>
      <point x="355" y="47"/>
      <point x="353" y="45"/>
      <point x="350" y="45" type="curve"/>
      <point x="350" y="45" type="line"/>
      <point x="347" y="45"/>
      <point x="345" y="47"/>
      <point x="345" y="50" type="curve"/>
      <point x="345" y="50" type="line"/>
      <point x="345" y="53"/>
      <point x="347" y="55"/>
      <point x="350" y="55" type="curve"/>
    </contour>
    <contour>
      <point x="250" y="55" type="line"/>
      <point x="250" y="55" type="line"/>
      <point x="253" y="55"/>
      <point x="255" y="53"/>
      <point x="255" y="50" type="curve"/>
      <point x="255" y="50" type="line"/>
      <point x="255" y="47"/>
      <point x="253" y="45"/>
      <point x="250" y="45" type="curve"/>
      <point x="250" y="45" type="line"/>
      <point x="247" y="45"/>
      <point x="245" y="47"/>
      <point x="245" y="50" type="curve"/>
      <point x="245" y="50" type="line"/>
      <point x="245" y="53"/>
      <point x="247" y="55"/>
      <point x="250" y="55" type="curve"/>
    </contour>
    <contour>
      <point x="150" y="55" type="line"/>
      <point x="150" y="55" type="line"/>
      <point x="153" y="55"/>
      <point x="155" y="53"/>
      <point x="155" y="50" type="curve"/>
      <point x="155" y="50" type="line"/>
      <point x="155" y="47"/>
      <point x="153" y="45"/>
      <point x="150" y="45" type="curve"/>
      <point x="150" y="45" type="line"/>
      <point x="147" y="45"/>
      <point x="145" y="47"/>
      <point x="145" y="50" type="curve"/>
      <point x="145" y="50" type="line"/>
      <point x="145" y="53"/>
      <point x="147" y="55"/>
      <point x="150" y="55" type="curve"/>
    </contour>
    <contour>
      <point x="450" y="155" type="line"/>
      <point x="450" y="155" type="line"/>
      <point x="453" y="155"/>
      <point x="455" y="153"/>
      <point x="455" y="150" type="curve"/>
      <point x="455" y="150" type="line"/>
      <point x="455" y="147"/>
      <point x="453" y="145"/>
      <point x="450" y="145" type="curve"/>
      <point x="450" y="145" type="line"/>
      <point x="447" y="145"/>
      <point x="445" y="147"/>
      <point x="445" y="150" type="curve"/>
      <point x="445" y="150" type="line"/>
      <point x="445" y="153"/>
      <point x="447" y="155"/>
      <point x="450" y="155" type="curve"/>
    </contour>
    <contour>
      <point x="50" y="155" type="line"/>
      <point x="50" y="155" type="line"/>
      <point x="53" y="155"/>
      <point x="55" y="153"/>
      <point x="55" y="150" type="curve"/>
      <point x="55" y="150" type="line"/>
      <point x="55" y="147"/>
      <point x="53" y="145"/>
      <point x="50" y="145" type="curve"/>
      <point x="50" y="145" type="line"/>
      <point x="47" y="145"/>
      <point x="45" y="147"/>
      <point x="45" y="150" type="curve"/>
      <point x="45" y="150" type="line"/>
      <point x="45" y="153"/>
      <point x="47" y="155"/>
      <point x="50" y="155" type="curve"/>
    </contour>
    <contour>
      <point x="450" y="255" type="line"/>
      <point x="450" y="255" type="line"/>
      <point x="453" y="255"/>
      <point x="455" y="253"/>
      <point x="455" y="250" type="curve"/>
      <point x="455" y="250" type="line"/>
      <point x="455" y="247"/>
      <point x="453" y="245"/>
      <point x="450" y="245" type="curve"/>
      <point x="450" y="245" type="line"/>
      <point x="447" y="245"/>
      <point x="445" y="247"/>
      <point x="445" y="250" type="curve"/>
      <point x="445" y="250" type="line"/>
      <point x="445" y="253"/>
      <point x="447" y="255"/>
      <point x="450" y="255" type="curve"/>
    </contour>
    <contour>
      <point x="350" y="355" type="line"/>
      <point x="350" y="355" type="line"/>
      <point x="353" y="355"/>
      <point x="355" y="353"/>
      <point x="355" y="350" type="curve"/>
      <point x="355" y="350" type="line"/>
      <point x="355" y="347"/>
      <point x="353" y="345"/>
      <point x="350" y="345" type="curve"/>
      <point x="350" y="345" type="line"/>
      <point x="347" y="345"/>
      <point x="345" y="347"/>
      <point x="345" y="350" type="curve"/>
      <point x="345" y="350" type="line"/>
      <point x="345" y="353"/>
      <point x="347" y="355"/>
      <point x="350" y="355" type="curve"/>
    </contour>
    <contour>
      <point x="250" y="355" type="line"/>
      <point x="250" y="355" type="line"/>
      <point x="253" y="355"/>
      <point x="255" y="353"/>
      <point x="255" y="350" type="curve"/>
      <point x="255" y="350" type="line"/>
      <point x="255" y="347"/>
      <point x="253" y="345"/>
      <point x="250" y="345" type="curve"/>
      <point x="250" y="345" type="line"/>
      <point x="247" y="345"/>
      <point x="245" y="347"/>
      <point x="245" y="350" type="curve"/>
      <point x="245" y="350" type="line"/>
      <point x="245" y="353"/>
      <point x="247" y="355"/>
      <point x="250" y="355" type="curve"/>
    </contour>
    <contour>
      <point x="150" y="355" type="line"/>
      <point x="150" y="355" type="line"/>
      <point x="153" y="355"/>
      <point x="155" y="353"/>
      <point x="155" y="350" type="curve"/>
      <point x="155" y="350" type="line"/>
      <point x="155" y="347"/>
      <point x="153" y="345"/>
      <point x="150" y="345" type="curve"/>
      <point x="150" y="345" type="line"/>
      <point x="147" y="345"/>
      <point x="145" y="347"/>
      <point x="145" y="350" type="curve"/>
      <point x="145" y="350" type="line"/>
      <point x="145" y="353"/>
      <point x="147" y="355"/>
      <point x="150" y="355" type="curve"/>
    </contour>
    <contour>
      <point x="50" y="455" type="line"/>
      <point x="50" y="455" type="line"/>
      <point x="53" y="455"/>
      <point x="55" y="453"/>
      <point x="55" y="450" type="curve"/>
      <point x="55" y="450" type="line"/>
      <point x="55" y="447"/>
      <point x="53" y="445"/>
      <point x="50" y="445" type="curve"/>
      <point x="50" y="445" type="line"/>
      <point x="47" y="445"/>
      <point x="45" y="447"/>
      <point x="45" y="450" type="curve"/>
      <point x="45" y="450" type="line"/>
      <point x="45" y="453"/>
      <point x="47" y="455"/>
      <point x="50" y="455" type="curve"/>
    </contour>
    <contour>
      <point x="350" y="555" type="line"/>
      <point x="350" y="555" type="line"/>
      <point x="353" y="555"/>
      <point x="355" y="553"/>
      <point x="355" y="550" type="curve"/>
      <point x="355" y="550" type="line"/>
      <point x="355" y="547"/>
      <point x="353" y="545"/>
      <point x="350" y="545" type="curve"/>
      <point x="350" y="545" type="line"/>
      <point x="347" y="545"/>
      <point x="345" y="547"/>
      <point x="345" y="550" type="curve"/>
      <point x="345" y="550" type="line"/>
      <point x="345" y="553"/>
      <point x="347" y="555"/>
      <point x="350" y="555" type="curve"/>
    </contour>
    <contour>
      <point x="250" y="555" type="line"/>
      <point x="250" y="555" type="line"/>
      <point x="253" y="555"/>
      <point x="255" y="553"/>
      <point x="255" y="550" type="curve"/>
      <point x="255" y="550" type="line"/>
      <point x="255" y="547"/>
      <point x="253" y="545"/>
      <point x="250" y="545" type="curve"/>
      <point x="250" y="545" type="line"/>
      <point x="247" y="545"/>
      <point x="245" y="547"/>
      <point x="245" y="550" type="curve"/>
      <point x="245" y="550" type="line"/>
      <point x="245" y="553"/>
      <point x="247" y="555"/>
      <point x="250" y="555" type="curve"/>
    </contour>
    <contour>
      <point x="150" y="555" type="line"/>
      <point x="150" y="555" type="line"/>
      <point x="153" y="555"/>
      <point x="155" y="553"/>
      <point x="155" y="550" type="curve"/>
      <point x="155" y="550" type="line"/>
      <point x="155" y="547"/>
      <point x="153" y="545"/>
      <point x="150" y="545" type="curve"/>
      <point x="150" y="545" type="line"/>
      <point x="147" y="545"/>
      <point x="145" y="547"/>
      <point x="145" y="550" type="curve"/>
      <point x="145" y="550" type="line"/>
      <point x="145" y="553"/>
      <point x="147" y="555"/>
      <point x="150" y="555" type="curve"/>
    </contour>
    <contour>
      <point x="250" y="655" type="line"/>
      <point x="250" y="655" type="line"/>
      <point x="253" y="655"/>
      <point x="255" y="653"/>
      <point x="255" y="650" type="curve"/>
      <point x="255" y="650" type="line"/>
      <point x="255" y="647"/>
      <point x="253" y="645"/>
      <point x="250" y="645" type="curve"/>
      <point x="250" y="645" type="line"/>
      <point x="247" y="645"/>
      <point x="245" y="647"/>
      <point x="245" y="650" type="curve"/>
      <point x="245" y="650" type="line"/>
      <point x="245" y="653"/>
      <point x="247" y="655"/>
      <point x="250" y="655" type="curve"/>
    </contour>
    <contour>
      <point x="350" y="755" type="line"/>
      <point x="350" y="755" type="line"/>
      <point x="353" y="755"/>
      <point x="355" y="753"/>
      <point x="355" y="750" type="curve"/>
      <point x="355" y="750" type="line"/>
      <point x="355" y="747"/>
      <point x="353" y="745"/>
      <point x="350" y="745" type="curve"/>
      <point x="350" y="745" type="line"/>
      <point x="347" y="745"/>
      <point x="345" y="747"/>
      <point x="345" y="750" type="curve"/>
      <point x="345" y="750" type="line"/>
      <point x="345" y="753"/>
      <point x="347" y="755"/>
      <point x="350" y="755" type="curve"/>
    </contour>
    <contour>
      <point x="150" y="755" type="line"/>
      <point x="150" y="755" type="line"/>
      <point x="153" y="755"/>
      <point x="155" y="753"/>
      <point x="155" y="750" type="curve"/>
      <point x="155" y="750" type="line"/>
      <point x="155" y="747"/>
      <point x="153" y="745"/>
      <point x="150" y="745" type="curve"/>
      <point x="150" y="745" type="line"/>
      <point x="147" y="745"/>
      <point x="145" y="747"/>
      <point x="145" y="750" type="curve"/>
      <point x="145" y="750" type="line"/>
      <point x="145" y="753"/>
      <point x="147" y="755"/>
      <point x="150" y="755" type="curve"/>
    </contour>
  </outline>
</glyph>
<glyph name="breve" format="2">
  <advance width="600"/>
  <unicode hex="02D8"/>
  <outline>
    <contour>
      <point x="350" y="655" type="line"/>
      <point x="350" y="655" type="line"/>
      <point x="353" y="655"/>
      <point x="355" y="653"/>
      <point x="355" y="650" type="curve"/>
      <point x="355" y="650" type="line"/>
      <point x="355" y="647"/>
      <point x="353" y="645"/>
      <point x="350" y="645" type="curve"/>
      <point x="350" y="645" type="line"/>
      <point x="347" y="645"/>
      <point x="345" y="647"/>
      <point x="345" y="650" type="curve"/>
      <point x="345" y="650" type="line"/>
      <point x="345" y="653"/>
      <point x="347" y="655"/>
      <point x="350" y="655" type="curve"/>
    </contour>
    <contour>
      <point x="250" y="655" type="line"/>
      <point x="250" y="655" type="line"/>
      <point x="253" y="655"/>
      <point x="255" y="653"/>
      <point x="255" y="650" type="curve"/>
      <point x="255" y="650" type="line"/>
      <point x="255" y="647"/>
      <point x="253" y="645"/>
      <point x="250" y="645" type="curve"/>
      <point x="250" y="645" type="line"/>
      <point x="247" y="645"/>
      <point x="245" y="647"/>
      <point x="245" y="650" type="curve"/>
      <point x="245" y="650" type="line"/>
      <point x="245" y="653"/>
      <point x="247" y="655"/>
      <point x="250" y="655" type="curve"/>
    </contour>
    <contour>
      <point x="150" y="655" type="line"/>
      <point x="150" y="655" type="line"/>
      <point x="153" y="655"/>
      <point x="155" y="653"/>
      <point x="155" y="650" type="curve"/>
      <point x="155" y="650" type="line"/>
      <point x="155" y="647"/>
      <point x="153" y="645"/>
      <point x="150" y="645" type="curve"/>
      <point x="150" y="645" type="line"/>
      <point x="147" y="645"/>
      <point x="145" y="647"/>
      <point x="145" y="650" type="curve"/>
      <point x="145" y="650" type="line"/>
      <point x="145" y="653"/>
      <point x="147" y="655"/>
      <point x="150" y="655" type="curve"/>
    </contour>
    <contour>
      <point x="450" y="755" type="line"/>
      <point x="450" y="755" type="line"/>
      <point x="453" y="755"/>
      <point x="455" y="753"/>
      <point x="455" y="750" type="curve"/>
      <point x="455" y="750" type="line"/>
      <point x="455" y="747"/>
      <point x="453" y="745"/>
      <point x="450" y="745" type="curve"/>
      <point x="450" y="745" type="line"/>
      <point x="447" y="745"/>
      <point x="445" y="747"/>
      <point x="445" y="750" type="curve"/>
      <point x="445" y="750" type="line"/>
      <point x="445" y="753"/>
      <point x="447" y="755"/>
      <point x="450" y="755" type="curve"/>
    </contour>
    <contour>
      <point x="50" y="755" type="line"/>
      <point x="50" y="755" type="line"/>
      <point x="53" y="755"/>
      <point x="55" y="753"/>
      <point x="55" y="750" type="curve"/>
      <point x="55" y="750" type="line"/>
      <point x="55" y="747"/>
      <point x="53" y="745"/>
      <point x="50" y="745" type="curve"/>
      <point x="50" y="745" type="line"/>
      <point x="47" y="745"/>
      <point x="45" y="747"/>
      <point x="45" y="750" type="curve"/>
      <point x="45" y="750" type="line"/>
      <point x="45" y="753"/>
      <point x="47" y="755"/>
      <point x="50" y="755" type="curve"/>
    </contour>
  </outline>
</glyph>
<glyph name="ring" format="2">
  <advance width="600"/>
  <unicode hex="02DA"/>
  <outline>
    <contour>
      <point x="249.75" y="555" type="line"/>
      <point x="250.25" y="555" type="line"/>
      <point x="252.762" y="555"/>
      <point x="255" y="552.762"/>
      <point x="255" y="550.25" type="curve"/>
      <point x="255" y="549.75" type="line"/>
      <point x="255" y="547.238"/>
      <point x="252.762" y="545"/>
      <point x="250.25" y="545" type="curve"/>
      <point x="249.75" y="545" type="line"/>
      <point x="247.238" y="545"/>
      <point x="245" y="547.238"/>
      <point x="245" y="549.75" type="curve"/>
      <point x="245" y="550.25" type="line"/>
      <point x="245" y="552.762"/>
      <point x="247.238" y="555"/>
      <point x="249.75" y="555" type="curve"/>
    </contour>
    <contour>
      <point x="349.75" y="655" type="line"/>
      <point x="350.25" y="655" type="line"/>
      <point x="352.762" y="655"/>
      <point x="355" y="652.762"/>
      <point x="355" y="650.25" type="curve"/>
      <point x="355" y="649.75" type="line"/>
      <point x="355" y="647.238"/>
      <point x="352.762" y="645"/>
      <point x="350.25" y="645" type="curve"/>
      <point x="349.75" y="645" type="line"/>
      <point x="347.238" y="645"/>
      <point x="345" y="647.238"/>
      <point x="345" y="649.75" type="curve"/>
      <point x="345" y="650.25" type="line"/>
      <point x="345" y="652.762"/>
      <point x="347.238" y="655"/>
      <point x="349.75" y="655" type="curve"/>
    </contour>
    <contour>
      <point x="149.75" y="655" type="line"/>
      <point x="150.25" y="655" type="line"/>
      <point x="152.762" y="655"/>
      <point x="155" y="652.762"/>
      <point x="155" y="650.25" type="curve"/>
      <point x="155" y="649.75" type="line"/>
      <point x="155" y="647.238"/>
      <point x="152.762" y="645"/>
      <point x="150.25" y="645" type="curve"/>
      <point x="149.75" y="645" type="line"/>
      <point x="147.238" y="645"/>
      <point x="145" y="647.238"/>
      <point x="145" y="649.75" type="curve"/>
      <point x="145" y="650.25" type="line"/>
      <point x="145" y="652.762"/>
      <point x="147.238" y="655"/>
      <point x="149.75" y="655" type="curve"/>
    </contour>
    <contour>
      <point x="249.75" y="755" type="line"/>
      <point x="250.25" y="755" type="line"/>
      <point x="252.762" y="755"/>
      <point x="255" y="752.762"/>
      <point x="255" y="750.25" type="curve"/>
      <point x="255" y="749.75" type="line"/>
      <point x="255" y="747.238"/>
      <point x="252.762" y="745"/>
      <point x="250.25" y="745" type="curve"/>
      <point x="249.75" y="745" type="line"/>
      <point x="247.238" y="745"/>
      <point x="245" y="747.238"/>
      <point x="245" y="749.75" type="curve"/>
      <point x="245" y="750.25" type="line"/>
      <point x="245" y="752.762"/>
      <point x="247.238" y="755"/>
      <point x="249.75" y="755" type="curve"/>
    </contour>
  </outline>
</glyph>
<glyph name="hungarumlaut" format="2">
  <advance width="600"/>
  <unicode hex="02DD"/>
  <outline>
    <contour>
      <point x="349.75" y="655" type="line"/>
      <point x="350.25" y="655" type="line"/>
      <point x="352.762" y="655"/>
      <point x="355" y="652.762"/>
      <point x="355" y="650.25" type="curve"/>
      <point x="355" y="649.75" type="line"/>
      <point x="355" y="647.238"/>
      <point x="352.762" y="645"/>
      <point x="350.25" y="645" type="curve"/>
      <point x="349.75" y="645" type="line"/>
      <point x="347.238" y="645"/>
      <point x="345" y="647.238"/>
      <point x="345" y="649.75" type="curve"/>
      <point x="345" y="650.25" type="line"/>
      <point x="345" y="652.762"/>
      <point x="347.238" y="655"/>
      <point x="349.75" y="655" type="curve"/>
    </contour>
    <contour>
      <point x="49.75" y="655" type="line"/>
      <point x="50.25" y="655" type="line"/>
      <point x="52.7617" y="655"/>
      <point x="55" y="652.762"/>
      <point x="55" y="650.25" type="curve"/>
      <point x="55" y="649.75" type="line"/>
      <point x="55" y="647.238"/>
      <point x="52.7617" y="645"/>
      <point x="50.25" y="645" type="curve"/>
      <point x="49.75" y="645" type="line"/>
      <point x="47.2383" y="645"/>
      <point x="45" y="647.238"/>
      <point x="45" y="649.75" type="curve"/>
      <point x="45" y="650.25" type="line"/>
      <point x="45" y="652.762"/>
      <point x="47.2383" y="655"/>
      <point x="49.75" y="655" type="curve"/>
    </contour>
    <contour>
      <point x="449.75" y="755" type="line"/>
      <point x="450.25" y="755" type="line"/>
      <point x="452.762" y="755"/>
      <point x="455" y="752.762"/>
      <point x="455" y="750.25" type="curve"/>
      <point x="455" y="749.75" type="line"/>
      <point x="455" y="747.238"/>
      <point x="452.762" y="745"/>
      <point x="450.25" y="745" type="curve"/>
      <point x="449.75" y="745" type="line"/>
      <point x="447.238" y="745"/>
      <point x="445" y="747.238"/>
      <point x="445" y="749.75" type="curve"/>
      <point x="445" y="750.25" type="line"/>
      <point x="445" y="752.762"/>
      <point x="447.238" y="755"/>
      <point x="449.75" y="755" type="curve"/>
    </contour>
    <contour>
      <point x="149.75" y="755" type="line"/>
      <point x="150.25" y="755" type="line"/>
      <point x="152.762" y="755"/>
      <point x="155" y="752.762"/>
      <point x="155" y="750.25" type="curve"/>
      <point x="155" y="749.75" type="line"/>
      <point x="155" y="747.238"/>
      <point x="152.762" y="745"/>
      <point x="150.25" y="745" type="curve"/>
      <point x="149.75" y="745" type="line"/>
      <point x="147.238" y="745"/>
      <point x="145" y="747.238"/>
      <point x="145" y="749.75" type="curve"/>
      <point x="145" y="750.25" type="line"/>
      <point x="145" y="752.762"/>
      <point x="147.238" y="755"/>
      <point x="149.75" y="755" type="curve"/>
    </contour>
  </outline>
</glyph>
<glyph name="acutecomb" format="2">
  <advance width="600"/>
  <unicode hex="0301"/>
  <outline>
    <contour>
      <point x="249.75" y="655" type="line"/>
      <point x="250.25" y="655" type="line"/>
      <point x="252.762" y="655"/>
      <point x="255" y="652.762"/>
      <point x="255" y="650.25" type="curve"/>
      <point x="255" y="649.75" type="line"/>
      <point x="255" y="647.238"/>
      <point x="252.762" y="645"/>
      <point x="250.25" y="645" type="curve"/>
      <point x="249.75" y="645" type="line"/>
      <point x="247.238" y="645"/>
      <point x="245" y="647.238"/>
      <point x="245" y="649.75" type="curve"/>
      <point x="245" y="650.25" type="line"/>
      <point x="245" y="652.762"/>
      <point x="247.238" y="655"/>
      <point x="249.75" y="655" type="curve"/>
    </contour>
    <contour>
      <point x="349.75" y="755" type="line"/>
      <point x="350.25" y="755" type="line"/>
      <point x="352.762" y="755"/>
      <point x="355" y="752.762"/>
      <point x="355" y="750.25" type="curve"/>
      <point x="355" y="749.75" type="line"/>
      <point x="355" y="747.238"/>
      <point x="352.762" y="745"/>
      <point x="350.25" y="745" type="curve"/>
      <point x="349.75" y="745" type="line"/>
      <point x="347.238" y="745"/>
      <point x="345" y="747.238"/>
      <point x="345" y="749.75" type="curve"/>
      <point x="345" y="750.25" type="line"/>
      <point x="345" y="752.762"/>
      <point x="347.238" y="755"/>
      <point x="349.75" y="755" type="curve"/>
    </contour>
  </outline>
</glyph>
<glyph name="uni0304" format="2">
  <advance width="600"/>
  <unicode hex="0304"/>
  <outline>
    <contour>
      <point x="349.75" y="755" type="line"/>
      <point x="350.25" y="755" type="line"/>
      <point x="352.762" y="755"/>
      <point x="355" y="752.762"/>
      <point x="355" y="750.25" type="curve"/>
      <point x="355" y="749.75" type="line"/>
      <point x="355" y="747.238"/>
      <point x="352.762" y="745"/>
      <point x="350.25" y="745" type="curve"/>
      <point x="349.75" y="745" type="line"/>
      <point x="347.238" y="745"/>
      <point x="345" y="747.238"/>
      <point x="345" y="749.75" type="curve"/>
      <point x="345" y="750.25" type="line"/>
      <point x="345" y="752.762"/>
      <point x="347.238" y="755"/>
      <point x="349.75" y="755" type="curve"/>
    </contour>
    <contour>
      <point x="249.75" y="755" type="line"/>
      <point x="250.25" y="755" type="line"/>
      <point x="252.762" y="755"/>
      <point x="255" y="752.762"/>
      <point x="255" y="750.25" type="curve"/>
      <point x="255" y="749.75" type="line"/>
      <point x="255" y="747.238"/>
      <point x="252.762" y="745"/>
      <point x="250.25" y="745" type="curve"/>
      <point x="249.75" y="745" type="line"/>
      <point x="247.238" y="745"/>
      <point x="245" y="747.238"/>
      <point x="245" y="749.75" type="curve"/>
      <point x="245" y="750.25" type="line"/>
      <point x="245" y="752.762"/>
      <point x="247.238" y="755"/>
      <point x="249.75" y="755" type="curve"/>
    </contour>
    <contour>
      <point x="149.75" y="755" type="line"/>
      <point x="150.25" y="755" type="line"/>
      <point x="152.762" y="755"/>
      <point x="155" y="752.762"/>
      <point x="155" y="750.25" type="curve"/>
      <point x="155" y="749.75" type="line"/>
      <point x="155" y="747.238"/>
      <point x="152.762" y="745"/>
      <point x="150.25" y="745" type="curve"/>
      <point x="149.75" y="745" type="line"/>
      <point x="147.238" y="745"/>
      <point x="145" y="747.238"/>
      <point x="145" y="749.75" type="curve"/>
      <point x="145" y="750.25" type="line"/>
      <point x="145" y="752.762"/>
      <point x="147.238" y="755"/>
      <point x="149.75" y="755" type="curve"/>
    </contour>
  </outline>
</glyph>
<glyph name="uni0307" format="2">
  <advance width="600"/>
  <unicode hex="0307"/>
  <outline>
    <contour>
      <point x="249.75" y="755" type="line"/>
      <point x="250.25" y="755" type="line"/>
      <point x="252.762" y="755"/>
      <point x="255" y="752.762"/>
      <point x="255" y="750.25" type="curve"/>
      <point x="255" y="749.75" type="line"/>
      <point x="255" y="747.238"/>
      <point x="252.762" y="745"/>
      <point x="250.25" y="745" type="curve"/>
      <point x="249.75" y="745" type="line"/>
      <point x="247.238" y="745"/>
      <point x="245" y="747.238"/>
      <point x="245" y="749.75" type="curve"/>
      <point x="245" y="750.25" type="line"/>
      <point x="245" y="752.762"/>
      <point x="247.238" y="755"/>
      <point x="249.75" y="755" type="curve"/>
    </contour>
  </outline>
</glyph>
<glyph name="uni0327" format="2">
  <advance width="600"/>
  <unicode hex="0327"/>
  <outline>
    <contour>
      <point x="149.75" y="-145" type="line"/>
      <point x="150.25" y="-145" type="line"/>
      <point x="152.762" y="-145"/>
      <point x="155" y="-147.238"/>
      <point x="155" y="-149.75" type="curve"/>
      <point x="155" y="-150.25" type="line"/>
      <point x="155" y="-152.762"/>
      <point x="152.762" y="-155"/>
      <point x="150.25" y="-155" type="curve"/>
      <point x="149.75" y="-155" type="line"/>
      <point x="147.238" y="-155"/>
      <point x="145" y="-152.762"/>
      <point x="145" y="-150.25" type="curve"/>
      <point x="145" y="-149.75" type="line"/>
      <point x="145" y="-147.238"/>
      <point x="147.238" y="-145"/>
      <point x="149.75" y="-145" type="curve"/>
    </contour>
    <contour>
      <point x="249.75" y="-45" type="line"/>
      <point x="250.25" y="-45" type="line"/>
      <point x="252.762" y="-45"/>
      <point x="255" y="-47.2383"/>
      <point x="255" y="-49.75" type="curve"/>
      <point x="255" y="-50.25" type="line"/>
      <point x="255" y="-52.7617"/>
      <point x="252.762" y="-55"/>
      <point x="250.25" y="-55" type="curve"/>
      <point x="249.75" y="-55" type="line"/>
      <point x="247.238" y="-55"/>
      <point x="245" y="-52.7617"/>
      <point x="245" y="-50.25" type="curve"/>
      <point x="245" y="-49.75" type="line"/>
      <point x="245" y="-47.2383"/>
      <point x="247.238" y="-45"/>
      <point x="249.75" y="-45" type="curve"/>
    </contour>
  </outline>
</glyph>
<glyph name="Ygrave" format="2">
  <advance width="600"/>
  <unicode hex="1EF2"/>
  <outline>
    <contour>
      <point x="249.75" y="55" type="line"/>
      <point x="250.25" y="55" type="line"/>
      <point x="252.762" y="55"/>
      <point x="255" y="52.7617"/>
      <point x="255" y="50.25" type="curve"/>
      <point x="255" y="49.75" type="line"/>
      <point x="255" y="47.2383"/>
      <point x="252.762" y="45"/>
      <point x="250.25" y="45" type="curve"/>
      <point x="249.75" y="45" type="line"/>
      <point x="247.238" y="45"/>
      <point x="245" y="47.2383"/>
      <point x="245" y="49.75" type="curve"/>
      <point x="245" y="50.25" type="line"/>
      <point x="245" y="52.7617"/>
      <point x="247.238" y="55"/>
      <point x="249.75" y="55" type="curve"/>
    </contour>
    <contour>
      <point x="249.75" y="155" type="line"/>
      <point x="250.25" y="155" type="line"/>
      <point x="252.762" y="155"/>
      <point x="255" y="152.762"/>
      <point x="255" y="150.25" type="curve"/>
      <point x="255" y="149.75" type="line"/>
      <point x="255" y="147.238"/>
      <point x="252.762" y="145"/>
      <point x="250.25" y="145" type="curve"/>
      <point x="249.75" y="145" type="line"/>
      <point x="247.238" y="145"/>
      <point x="245" y="147.238"/>
      <point x="245" y="149.75" type="curve"/>
      <point x="245" y="150.25" type="line"/>
      <point x="245" y="152.762"/>
      <point x="247.238" y="155"/>
      <point x="249.75" y="155" type="curve"/>
    </contour>
    <contour>
      <point x="249.75" y="255" type="line"/>
      <point x="250.25" y="255" type="line"/>
      <point x="252.762" y="255"/>
      <point x="255" y="252.762"/>
      <point x="255" y="250.25" type="curve"/>
      <point x="255" y="249.75" type="line"/>
      <point x="255" y="247.238"/>
      <point x="252.762" y="245"/>
      <point x="250.25" y="245" type="curve"/>
      <point x="249.75" y="245" type="line"/>
      <point x="247.238" y="245"/>
      <point x="245" y="247.238"/>
      <point x="245" y="249.75" type="curve"/>
      <point x="245" y="250.25" type="line"/>
      <point x="245" y="252.762"/>
      <point x="247.238" y="255"/>
      <point x="249.75" y="255" type="curve"/>
    </contour>
    <contour>
      <point x="249.75" y="355" type="line"/>
      <point x="250.25" y="355" type="line"/>
      <point x="252.762" y="355"/>
      <point x="255" y="352.762"/>
      <point x="255" y="350.25" type="curve"/>
      <point x="255" y="349.75" type="line"/>
      <point x="255" y="347.238"/>
      <point x="252.762" y="345"/>
      <point x="250.25" y="345" type="curve"/>
      <point x="249.75" y="345" type="line"/>
      <point x="247.238" y="345"/>
      <point x="245" y="347.238"/>
      <point x="245" y="349.75" type="curve"/>
      <point x="245" y="350.25" type="line"/>
      <point x="245" y="352.762"/>
      <point x="247.238" y="355"/>
      <point x="249.75" y="355" type="curve"/>
    </contour>
    <contour>
      <point x="349.75" y="455" type="line"/>
      <point x="350.25" y="455" type="line"/>
      <point x="352.762" y="455"/>
      <point x="355" y="452.762"/>
      <point x="355" y="450.25" type="curve"/>
      <point x="355" y="449.75" type="line"/>
      <point x="355" y="447.238"/>
      <point x="352.762" y="445"/>
      <point x="350.25" y="445" type="curve"/>
      <point x="349.75" y="445" type="line"/>
      <point x="347.238" y="445"/>
      <point x="345" y="447.238"/>
      <point x="345" y="449.75" type="curve"/>
      <point x="345" y="450.25" type="line"/>
      <point x="345" y="452.762"/>
      <point x="347.238" y="455"/>
      <point x="349.75" y="455" type="curve"/>
    </contour>
    <contour>
      <point x="149.75" y="455" type="line"/>
      <point x="150.25" y="455" type="line"/>
      <point x="152.762" y="455"/>
      <point x="155" y="452.762"/>
      <point x="155" y="450.25" type="curve"/>
      <point x="155" y="449.75" type="line"/>
      <point x="155" y="447.238"/>
      <point x="152.762" y="445"/>
      <point x="150.25" y="445" type="curve"/>
      <point x="149.75" y="445" type="line"/>
      <point x="147.238" y="445"/>
      <point x="145" y="447.238"/>
      <point x="145" y="449.75" type="curve"/>
      <point x="145" y="450.25" type="line"/>
      <point x="145" y="452.762"/>
      <point x="147.238" y="455"/>
      <point x="149.75" y="455" type="curve"/>
    </contour>
    <contour>
      <point x="449.75" y="555" type="line"/>
      <point x="450.25" y="555" type="line"/>
      <point x="452.762" y="555"/>
      <point x="455" y="552.762"/>
      <point x="455" y="550.25" type="curve"/>
      <point x="455" y="549.75" type="line"/>
      <point x="455" y="547.238"/>
      <point x="452.762" y="545"/>
      <point x="450.25" y="545" type="curve"/>
      <point x="449.75" y="545" type="line"/>
      <point x="447.238" y="545"/>
      <point x="445" y="547.238"/>
      <point x="445" y="549.75" type="curve"/>
      <point x="445" y="550.25" type="line"/>
      <point x="445" y="552.762"/>
      <point x="447.238" y="555"/>
      <point x="449.75" y="555" type="curve"/>
    </contour>
    <contour>
      <point x="49.75" y="555" type="line"/>
      <point x="50.25" y="555" type="line"/>
      <point x="52.7617" y="555"/>
      <point x="55" y="552.762"/>
      <point x="55" y="550.25" type="curve"/>
      <point x="55" y="549.75" type="line"/>
      <point x="55" y="547.238"/>
      <point x="52.7617" y="545"/>
      <point x="50.25" y="545" type="curve"/>
      <point x="49.75" y="545" type="line"/>
      <point x="47.2383" y="545"/>
      <point x="45" y="547.238"/>
      <point x="45" y="549.75" type="curve"/>
      <point x="45" y="550.25" type="line"/>
      <point x="45" y="552.762"/>
      <point x="47.2383" y="555"/>
      <point x="49.75" y="555" type="curve"/>
    </contour>
    <contour>
      <point x="249.75" y="655" type="line"/>
      <point x="250.25" y="655" type="line"/>
      <point x="252.762" y="655"/>
      <point x="255" y="652.762"/>
      <point x="255" y="650.25" type="curve"/>
      <point x="255" y="649.75" type="line"/>
      <point x="255" y="647.238"/>
      <point x="252.762" y="645"/>
      <point x="250.25" y="645" type="curve"/>
      <point x="249.75" y="645" type="line"/>
      <point x="247.238" y="645"/>
      <point x="245" y="647.238"/>
      <point x="245" y="649.75" type="curve"/>
      <point x="245" y="650.25" type="line"/>
      <point x="245" y="652.762"/>
      <point x="247.238" y="655"/>
      <point x="249.75" y="655" type="curve"/>
    </contour>
    <contour>
      <point x="149.75" y="755" type="line"/>
      <point x="150.25" y="755" type="line"/>
      <point x="152.762" y="755"/>
      <point x="155" y="752.762"/>
      <point x="155" y="750.25" type="curve"/>
      <point x="155" y="749.75" type="line"/>
      <point x="155" y="747.238"/>
      <point x="152.762" y="745"/>
      <point x="150.25" y="745" type="curve"/>
      <point x="149.75" y="745" type="line"/>
      <point x="147.238" y="745"/>
      <point x="145" y="747.238"/>
      <point x="145" y="749.75" type="curve"/>
      <point x="145" y="750.25" type="line"/>
      <point x="145" y="752.762"/>
      <point x="147.238" y="755"/>
      <point x="149.75" y="755" type="curve"/>
    </contour>
  </outline>
</glyph>
<glyph name="quotesinglbase" format="2">
  <advance width="600"/>
  <unicode hex="201A"/>
  <outline>
    <contour>
      <point x="249.75" y="-45" type="line"/>
      <point x="250.25" y="-45" type="line"/>
      <point x="252.762" y="-45"/>
      <point x="255" y="-47.2383"/>
      <point x="255" y="-49.75" type="curve"/>
      <point x="255" y="-50.25" type="line"/>
      <point x="255" y="-52.7617"/>
      <point x="252.762" y="-55"/>
      <point x="250.25" y="-55" type="curve"/>
      <point x="249.75" y="-55" type="line"/>
      <point x="247.238" y="-55"/>
      <point x="245" y="-52.7617"/>
      <point x="245" y="-50.25" type="curve"/>
      <point x="245" y="-49.75" type="line"/>
      <point x="245" y="-47.2383"/>
      <point x="247.238" y="-45"/>
      <point x="249.75" y="-45" type="curve"/>
    </contour>
    <contour>
      <point x="349.75" y="55" type="line"/>
      <point x="350.25" y="55" type="line"/>
      <point x="352.762" y="55"/>
      <point x="355" y="52.7617"/>
      <point x="355" y="50.25" type="curve"/>
      <point x="355" y="49.75" type="line"/>
      <point x="355" y="47.2383"/>
      <point x="352.762" y="45"/>
      <point x="350.25" y="45" type="curve"/>
      <point x="349.75" y="45" type="line"/>
      <point x="347.238" y="45"/>
      <point x="345" y="47.2383"/>
      <point x="345" y="49.75" type="curve"/>
      <point x="345" y="50.25" type="line"/>
      <point x="345" y="52.7617"/>
      <point x="347.238" y="55"/>
      <point x="349.75" y="55" type="curve"/>
    </contour>
    <contour>
      <point x="349.75" y="155" type="line"/>
      <point x="350.25" y="155" type="line"/>
      <point x="352.762" y="155"/>
      <point x="355" y="152.762"/>
      <point x="355" y="150.25" type="curve"/>
      <point x="355" y="149.75" type="line"/>
      <point x="355" y="147.238"/>
      <point x="352.762" y="145"/>
      <point x="350.25" y="145" type="curve"/>
      <point x="349.75" y="145" type="line"/>
      <point x="347.238" y="145"/>
      <point x="345" y="147.238"/>
      <point x="345" y="149.75" type="curve"/>
      <point x="345" y="150.25" type="line"/>
      <point x="345" y="152.762"/>
      <point x="347.238" y="155"/>
      <point x="349.75" y="155" type="curve"/>
    </contour>
    <contour>
      <point x="249.75" y="155" type="line"/>
      <point x="250.25" y="155" type="line"/>
      <point x="252.762" y="155"/>
      <point x="255" y="152.762"/>
      <point x="255" y="150.25" type="curve"/>
      <point x="255" y="149.75" type="line"/>
      <point x="255" y="147.238"/>
      <point x="252.762" y="145"/>
      <point x="250.25" y="145" type="curve"/>
      <point x="249.75" y="145" type="line"/>
      <point x="247.238" y="145"/>
      <point x="245" y="147.238"/>
      <point x="245" y="149.75" type="curve"/>
      <point x="245" y="150.25" type="line"/>
      <point x="245" y="152.762"/>
      <point x="247.238" y="155"/>
      <point x="249.75" y="155" type="curve"/>
    </contour>
  </outline>
</glyph>
